<svg xmlns="http://www.w3.org/2000/svg" width="878" height="708" viewBox="0 0 878 708" version="1.1">
	<path d="M 286.500 44.026 C 265.653 45.757, 239.421 50.197, 221.194 55.082 C 212.128 57.511, 185.637 67.661, 174.231 73.075 C 169.683 75.234, 165.558 77, 165.064 77 C 164.570 77, 164.017 77.338, 163.833 77.750 C 163.650 78.162, 161.925 79.275, 160 80.223 C 153.766 83.291, 141.592 90.025, 138 92.392 C 124.597 101.223, 116.721 106.604, 115.231 107.946 C 114.279 108.804, 109.675 112.632, 105 116.452 C 85.481 132.402, 68.144 150.483, 52.726 170.972 C 31.835 198.733, 16.052 228.602, 4.430 262.373 L -0 275.247 -0 369.043 L 0 462.839 4.481 476.387 C 6.945 483.838, 9.870 491.630, 10.981 493.703 C 12.091 495.775, 13 497.805, 13 498.214 C 13 500.380, 29.181 531.116, 35.525 541 C 42.541 551.931, 54.120 568.064, 61.735 577.518 C 70.064 587.859, 94.899 612.665, 103 618.735 C 106.025 621.002, 111.919 625.528, 116.097 628.794 C 141.701 648.803, 165.270 661.634, 200.852 674.936 C 226.955 684.695, 245.548 689.101, 279.364 693.544 C 297.117 695.876, 338.143 695.152, 355 692.208 C 361.325 691.104, 369.085 689.898, 372.243 689.529 C 400.719 686.201, 463.076 661.479, 487.500 643.835 C 489.700 642.246, 494.875 638.745, 499 636.055 C 503.125 633.364, 507.895 629.889, 509.600 628.332 C 511.304 626.774, 515.100 623.475, 518.033 621 C 535.941 605.892, 551.205 590.598, 564.938 574 C 571.491 566.080, 591.480 537.262, 595.111 530.500 C 606.235 509.781, 610.955 499.351, 617.961 480 C 619.653 475.325, 621.470 470.600, 621.997 469.500 C 624.626 464.019, 631.122 438.436, 634.058 422 C 637.038 405.321, 637.405 401.141, 637.789 379.540 C 638.433 343.231, 635.349 317.161, 626.544 284.500 C 618.595 255.012, 603.432 220.540, 586.179 192.735 C 571.962 169.822, 543.681 136.804, 526.020 122.500 C 494.533 96.997, 487.484 92.271, 460 78.235 C 447.734 71.970, 426.116 62.777, 412 57.823 C 403.536 54.852, 383.993 50.481, 368.500 48.093 C 360.800 46.906, 351.800 45.438, 348.500 44.831 C 341.346 43.514, 299.250 42.968, 286.500 44.026 M 285.313 114.102 C 281.927 115.082, 278.310 118.918, 277.417 122.476 C 276.517 126.060, 280.645 147.975, 283.826 156.500 C 287.731 166.969, 290.962 174.381, 291.406 173.892 C 291.601 173.676, 292.742 167.200, 293.942 159.500 C 295.141 151.800, 296.968 142.125, 298.001 138 C 301.376 124.533, 302.214 120.001, 301.618 118.446 C 300.924 116.639, 293.369 113.014, 290.500 113.112 C 289.400 113.150, 287.066 113.595, 285.313 114.102 M 327.821 114.263 C 327.095 114.958, 325.262 116.318, 323.750 117.286 C 322.074 118.358, 321 119.933, 321 121.316 C 321 122.565, 322.562 131.165, 324.471 140.428 C 326.379 149.691, 328.243 160.597, 328.611 164.663 C 328.979 168.729, 329.676 172.300, 330.160 172.599 C 332.679 174.156, 340.889 149.802, 343.074 134.289 C 344.787 122.128, 343.900 118.462, 338.500 115.374 C 334.015 112.809, 329.801 112.371, 327.821 114.263 M 286.710 119 C 286.423 120.100, 286.595 121, 287.094 121 C 287.592 121, 288 120.100, 288 119 C 288 117.900, 287.827 117, 287.617 117 C 287.406 117, 286.998 117.900, 286.710 119 M 247.104 122.535 C 243.136 127.053, 243.138 129.764, 247.115 143.075 C 250.489 154.370, 253.193 160.306, 258.854 168.843 L 262.500 174.341 263.154 157.921 C 263.513 148.889, 264.554 137.962, 265.467 133.637 C 266.380 129.313, 266.881 125.131, 266.579 124.345 C 265.781 122.265, 258.090 119.047, 253.854 119.022 C 250.917 119.004, 249.603 119.688, 247.104 122.535 M 359.750 120.658 C 356.177 122.141, 356 122.433, 356.006 126.857 C 356.009 129.411, 356.516 133.300, 357.133 135.500 C 357.751 137.700, 358.536 147.118, 358.878 156.429 L 359.500 173.358 363.598 166.929 C 370.594 155.955, 378 136.385, 378 128.872 C 378 124.579, 377.018 123.050, 372.917 120.957 C 368.356 118.631, 364.832 118.551, 359.750 120.658 M 251.250 121.496 C 249.411 123.585, 249.726 124.217, 252 123 C 253.100 122.411, 254 121.495, 254 120.965 C 254 119.589, 252.709 119.838, 251.250 121.496 M 225 128.706 C 219.336 130.777, 216.222 137.715, 218.278 143.682 C 220.222 149.323, 228.570 163.018, 233.180 168.130 L 237.122 172.500 236.578 168 C 236.278 165.525, 235.550 156.525, 234.959 148 C 233.920 132.985, 233.802 132.430, 231.193 130.255 C 228.435 127.956, 227.614 127.751, 225 128.706 M 391.209 130.019 C 389.198 131.242, 387.966 132.816, 387.910 134.235 C 387.738 138.549, 387.134 150.552, 386.515 161.969 L 385.892 173.438 388.617 169.469 C 390.116 167.286, 392.653 163.578, 394.256 161.229 C 403.841 147.180, 406.362 137.294, 401.745 131.855 C 398.668 128.230, 395.157 127.618, 391.209 130.019 M 194.513 139.545 C 189.852 140.729, 184.260 145.724, 183.930 149 C 183.333 154.918, 185.233 159.629, 192.767 170.914 C 198.147 178.971, 214.922 197, 217.039 197 C 218.663 197, 218.129 193.055, 214.549 178.608 C 212.656 170.968, 210.349 159.943, 209.424 154.108 C 208.498 148.274, 207.150 142.542, 206.427 141.372 C 204.772 138.690, 200.474 138.031, 194.513 139.545 M 417.673 139.749 C 414.324 141.085, 414.088 141.486, 413.502 146.832 C 412.276 158.031, 409.910 170.878, 406.690 183.825 C 404.888 191.071, 403.804 197, 404.281 197 C 405.973 197, 427.605 174.412, 431.308 168.779 C 438.823 157.347, 439.969 149.313, 434.909 143.549 C 430.435 138.453, 424.308 137.102, 417.673 139.749 M 162.080 159.265 C 160.750 159.944, 158.834 161.984, 157.824 163.799 C 155.873 167.301, 156.092 170.070, 158.749 175.500 C 162.455 183.075, 177.048 199.762, 184.531 204.983 L 188.563 207.795 183.898 194.104 C 181.332 186.573, 178.238 176.382, 177.022 171.456 C 174.134 159.750, 172.986 157.996, 168.227 158.015 C 166.177 158.023, 163.411 158.585, 162.080 159.265 M 450.250 159.031 C 449.012 159.529, 448.001 160.738, 448.003 161.718 C 448.007 163.861, 445.100 174.242, 439.943 190.500 C 434.223 208.535, 434.451 207.364, 436.908 206.049 C 443.702 202.413, 461.429 182.676, 465.035 174.732 C 467.483 169.340, 467.472 167.500, 464.973 163.456 C 462.068 158.756, 455.698 156.841, 450.250 159.031 M 159.580 162.870 C 159.273 163.367, 159.692 164.329, 160.511 165.009 C 161.722 166.014, 162 165.953, 162 164.681 C 162 162.815, 160.369 161.594, 159.580 162.870 M 140.984 179.867 C 137.008 181.999, 134.393 187.444, 135.406 191.482 C 136.755 196.858, 146.717 205.464, 161.872 214.346 C 165.243 216.321, 168 217.735, 168 217.488 C 168 217.241, 166.487 214.668, 164.637 211.769 C 160.125 204.701, 156.560 197.534, 153.466 189.313 C 148.985 177.407, 147.571 176.337, 140.984 179.867 M 474.152 179.335 C 473.628 179.976, 472.020 183.412, 470.580 186.972 C 468 193.345, 458.577 210.781, 454.703 216.351 L 452.720 219.202 457.040 216.475 C 459.416 214.975, 462.854 213.123, 464.680 212.360 C 466.506 211.597, 468 210.304, 468 209.487 C 468 208.669, 468.705 208, 469.567 208 C 471.402 208, 481.549 200.014, 484.613 196.158 C 487.578 192.427, 488.225 189.721, 486.951 186.382 C 485.891 183.606, 485.798 183.571, 484.425 185.441 C 483.641 186.509, 483 186.873, 483 186.250 C 483 185.627, 483.450 184.840, 484 184.500 C 486.443 182.990, 483.916 180.697, 477.913 178.975 C 476.078 178.449, 474.774 178.573, 474.152 179.335 M 314.035 190.934 C 313.466 191.998, 313 193.547, 313 194.375 C 313 195.204, 312.627 196.112, 312.172 196.394 C 311.716 196.676, 311.395 195.341, 311.458 193.428 C 311.543 190.865, 311.213 190.088, 310.205 190.475 C 309.452 190.764, 308.648 191, 308.418 191 C 307.379 191, 308.224 196.819, 310.913 208.186 C 312.515 214.959, 314.142 222.643, 314.529 225.262 C 315.425 231.341, 316.649 232.083, 317.859 227.280 C 318.383 225.201, 319.979 218.963, 321.406 213.419 C 324.781 200.301, 324.817 194.726, 321.545 191.455 C 318.598 188.507, 315.451 188.289, 314.035 190.934 M 280.882 192.503 C 277.441 194.373, 276.785 198.135, 278.485 206.260 C 279.853 212.799, 285.326 225.693, 288.348 229.500 C 289.844 231.384, 289.938 231.142, 289.968 225.328 C 289.986 221.934, 290.930 213.615, 292.067 206.842 L 294.134 194.527 291.956 192.763 C 289.353 190.656, 284.492 190.541, 280.882 192.503 M 336.009 192.267 C 334.639 192.973, 333.403 194.439, 333.263 195.525 C 333.040 197.250, 333.153 197.216, 334.157 195.250 C 335.934 191.770, 337.165 192.589, 336.413 196.750 C 335.666 200.881, 335 202.256, 335 199.667 C 335 198.750, 334.494 198, 333.875 198 C 333.143 198, 332.973 199.116, 333.388 201.190 C 334.133 204.917, 335.886 220.498, 336.291 227 L 336.572 231.500 339.716 224.927 C 343.451 217.117, 346.520 208.075, 347.368 202.384 C 348.533 194.563, 342.309 189.020, 336.009 192.267 M 341.801 192.533 C 341.489 192.844, 341.672 194.989, 342.207 197.299 C 342.741 199.610, 342.924 204.200, 342.614 207.500 C 342.146 212.474, 342.256 213.158, 343.261 211.500 C 345.720 207.441, 344.375 189.959, 341.801 192.533 M 257 197.290 C 255.411 198.090, 254.172 199.868, 253.600 202.166 C 252.790 205.424, 253.169 206.648, 257.435 214.538 C 260.039 219.355, 263.594 225.366, 265.335 227.898 L 268.500 232.500 268.482 216 C 268.465 200.106, 268.040 197, 265.882 197 C 265.332 197, 265.207 197.526, 265.605 198.170 C 266.098 198.968, 265.773 199.127, 264.582 198.670 C 263.622 198.301, 262.536 197.993, 262.168 197.985 C 261.801 197.976, 262.175 197.533, 263 197 C 265.336 195.491, 260.064 195.745, 257 197.290 M 259 198.059 C 259 198.641, 259.450 198.840, 260 198.500 C 260.550 198.160, 261 197.684, 261 197.441 C 261 197.198, 260.550 197, 260 197 C 259.450 197, 259 197.477, 259 198.059 M 359.750 197.689 C 358.788 197.941, 358 199.014, 358 200.073 C 358 201.133, 357.550 202, 357 202 C 356.450 202, 356 202.477, 356 203.059 C 356 203.641, 356.450 203.840, 357 203.500 C 357.550 203.160, 358 203.359, 358 203.941 C 358 204.523, 357.583 205, 357.072 205 C 356.555 205, 356.371 207.322, 356.656 210.250 C 356.937 213.137, 356.748 218.088, 356.235 221.250 C 355.722 224.412, 355.639 227, 356.050 227 C 356.820 227, 365.093 211.515, 366.994 206.515 C 367.936 204.039, 367.880 203.854, 366.532 204.974 C 364.705 206.490, 364.426 204.941, 365.998 202.004 C 366.736 200.626, 366.586 199.729, 365.427 198.569 C 363.846 196.989, 362.958 196.851, 359.750 197.689 M 120.212 200.990 C 115.224 203.254, 113 207.395, 113 214.417 C 113 218.305, 113.431 219.222, 116.250 221.343 C 121.914 225.604, 152.206 240, 155.508 240 C 155.656 240, 151.062 232.912, 145.299 224.250 C 139.535 215.588, 133.900 206.700, 132.776 204.500 C 129.589 198.265, 127.501 197.682, 120.212 200.990 M 490.437 203.750 C 488.923 206.363, 482.772 215.853, 476.768 224.841 C 468.007 237.957, 466.311 241.046, 468.176 240.493 C 472.905 239.092, 500.643 225.164, 504.750 222.128 C 508.754 219.169, 509 218.701, 509 214.041 C 509 207.090, 507.372 204.222, 501.835 201.416 C 495.001 197.953, 493.634 198.233, 490.437 203.750 M 378.332 203.456 C 375.424 204.721, 375.115 205.312, 374.558 210.667 C 374.224 213.875, 373.083 222.559, 372.023 229.964 C 370.962 237.369, 370.335 243.669, 370.629 243.962 C 370.923 244.256, 372.137 243.147, 373.327 241.498 C 374.518 239.849, 377.835 235.940, 380.698 232.810 C 392.819 219.565, 395.128 206.332, 385.881 203.108 C 382.026 201.765, 382.244 201.755, 378.332 203.456 M 379.989 204.808 L 377.698 206.663 381.099 206.678 C 382.970 206.686, 385.512 206.961, 386.750 207.289 C 389.301 207.965, 389.588 207.445, 387.703 205.561 C 385.293 203.150, 382.386 202.867, 379.989 204.808 M 238.561 206.348 C 235.706 209.203, 234.805 213.237, 237.527 210.978 C 238.841 209.887, 239.024 210.113, 238.843 212.605 C 238.717 214.342, 239.735 217.238, 241.388 219.844 C 242.904 222.234, 243.910 224.423, 243.623 224.710 C 242.953 225.380, 237 216.028, 237 214.304 C 237 213.587, 236.541 213, 235.980 213 C 234.314 213, 238.476 220.179, 244.594 227.857 C 247.735 231.801, 250.444 234.889, 250.612 234.721 C 250.902 234.432, 249.249 224.749, 246.662 211.582 C 246.013 208.276, 244.887 205.460, 244.111 205.202 C 243.268 204.922, 242.996 205.185, 243.420 205.870 C 243.862 206.587, 243.273 206.994, 241.809 206.985 C 239.995 206.973, 239.815 206.770, 240.971 206.039 C 241.780 205.527, 242.145 204.812, 241.782 204.448 C 241.418 204.085, 239.969 204.940, 238.561 206.348 M 387.158 211 C 387.158 212.375, 387.385 212.938, 387.662 212.250 C 387.940 211.563, 387.940 210.438, 387.662 209.750 C 387.385 209.063, 387.158 209.625, 387.158 211 M 215.155 213.848 C 212.708 215.731, 212.067 218.925, 213.369 222.750 C 213.824 224.088, 213.732 225, 213.141 225 C 212.594 225, 211.941 224.213, 211.689 223.250 C 211.322 221.843, 211.209 221.912, 211.116 223.601 C 210.941 226.764, 220.089 238.163, 228.692 245.504 C 232.887 249.084, 236.440 251.894, 236.586 251.748 C 236.732 251.602, 235.356 246.536, 233.529 240.491 C 231.702 234.446, 229.643 225.976, 228.953 221.668 C 227.866 214.876, 227.378 213.714, 225.284 212.918 C 221.575 211.508, 217.740 211.860, 215.155 213.848 M 385.600 215.600 C 385.244 216.527, 385.178 217.511, 385.453 217.786 C 385.728 218.061, 386.244 217.527, 386.600 216.600 C 386.956 215.673, 387.022 214.689, 386.747 214.414 C 386.472 214.139, 385.956 214.673, 385.600 215.600 M 402.986 216.336 C 401.066 217.308, 400.229 219.481, 397.919 229.500 C 396.397 236.100, 394.462 243.412, 393.620 245.750 C 392.778 248.088, 392.370 250, 392.714 250 C 393.058 250, 396.779 246.490, 400.984 242.200 C 409.014 234.007, 413.043 227.344, 412.937 222.434 C 412.882 219.894, 412.763 219.773, 412.048 221.535 C 411.595 222.654, 410.414 224.229, 409.425 225.035 C 407.786 226.370, 407.693 226.322, 408.383 224.500 C 408.799 223.400, 409.371 221.150, 409.654 219.500 C 410.051 217.187, 409.923 216.844, 409.100 218 C 408.166 219.310, 408.029 219.292, 408.015 217.857 C 407.994 215.611, 405.757 214.935, 402.986 216.336 M 383.990 222.015 C 382.809 223.673, 382.002 225.506, 382.196 226.088 C 382.390 226.671, 383.579 225.314, 384.839 223.074 C 387.526 218.292, 387.057 217.707, 383.990 222.015 M 101.409 229.015 C 99.708 230.104, 97.510 232.495, 96.523 234.328 C 94.939 237.268, 94.891 238, 96.114 240.544 C 98.166 244.814, 104.181 248.291, 116.500 252.330 C 129.629 256.634, 136 258.125, 136 256.894 C 136 256.402, 135.628 256, 135.173 256 C 134.719 256, 128.306 249.479, 120.923 241.509 C 113.540 233.539, 106.825 227.022, 106 227.026 C 105.175 227.030, 103.109 227.925, 101.409 229.015 M 196.500 228.155 C 193.356 229.874, 192 232.118, 192 235.601 C 192 240.957, 198.915 248.469, 214.736 260.298 C 215.416 260.806, 214.446 257.910, 212.581 253.861 C 210.716 249.812, 208.162 242.735, 206.906 238.132 C 203.929 227.226, 201.847 225.230, 196.500 228.155 M 512.499 230.250 C 508.969 234.534, 497.578 246.290, 491.183 252.250 C 488.038 255.180, 486.704 257, 487.699 257 C 490.459 257, 511.218 250.839, 516.990 248.306 C 523.154 245.602, 527.008 242.429, 526.985 240.076 C 526.975 239.090, 526.694 238.904, 526.235 239.579 C 525.197 241.103, 515.100 246.433, 514.461 245.795 C 514.170 245.504, 516.873 243.422, 520.466 241.169 C 524.060 238.916, 527 236.481, 527 235.759 C 527 232.443, 520.561 227, 516.639 227 C 515.835 227, 513.973 228.463, 512.499 230.250 M 419.806 231.250 C 419.023 232.488, 417.566 235.750, 416.569 238.500 C 415.571 241.250, 413.052 246.504, 410.971 250.176 C 408.889 253.848, 407.435 257.101, 407.738 257.405 C 409.018 258.684, 427.553 243.766, 429.598 239.810 C 431.574 235.990, 431.357 234.266, 428.545 231.455 C 425.456 228.365, 421.688 228.277, 419.806 231.250 M 424 230.893 C 424 231.384, 424.652 232.036, 425.449 232.342 C 426.418 232.714, 426.714 232.418, 426.342 231.449 C 425.735 229.867, 424 229.455, 424 230.893 M 180.036 244.770 L 177.850 246.540 179.925 249.178 C 183.056 253.158, 182.413 254.770, 179 251.500 L 176 248.626 176 250.984 C 176 255.293, 188.775 264.942, 202.305 270.852 C 202.748 271.045, 200.884 267.889, 198.162 263.837 C 195.440 259.785, 191.719 253.439, 189.892 249.735 C 186.274 242.399, 184.233 241.371, 180.036 244.770 M 433.364 248.752 C 427.348 257.859, 420.568 268.518, 419.249 270.941 C 417.971 273.289, 417.992 273.317, 419.789 271.691 C 420.817 270.761, 422.015 270, 422.453 270 C 422.890 270, 426.905 268.365, 431.374 266.366 C 441.961 261.632, 448 256.814, 448 253.100 C 448 248.986, 446.973 248.667, 443.608 251.736 C 441.898 253.295, 441.214 253.628, 442.038 252.500 C 442.842 251.400, 444.063 250.140, 444.750 249.700 C 446.737 248.429, 446.223 247.167, 443.050 245.526 C 438.357 243.099, 436.742 243.637, 433.364 248.752 M 509.500 247.464 C 507.850 248.219, 507.201 248.874, 508.059 248.919 C 508.916 248.963, 510.491 248.339, 511.559 247.532 C 513.970 245.708, 513.377 245.689, 509.500 247.464 M 528.421 252.905 C 522.954 256.258, 497.482 280.812, 498.457 281.790 C 499.164 282.498, 513.358 279.654, 522.099 277.052 C 531.935 274.124, 539.347 270.866, 540.532 268.948 C 541.813 266.876, 540.411 267.137, 534.475 270.076 C 531.189 271.702, 526.700 273.227, 524.500 273.462 C 521.553 273.779, 521.027 273.653, 522.500 272.985 C 528.685 270.181, 532.636 268.613, 533.679 268.548 C 534.328 268.508, 535.228 268.071, 535.679 267.577 C 536.159 267.053, 535.876 267.021, 535 267.501 C 534.175 267.953, 534.603 267.112, 535.952 265.632 C 537.301 264.152, 538.988 263.165, 539.702 263.439 C 542.423 264.483, 541.038 258.838, 537.841 255.851 C 532.930 251.264, 531.716 250.884, 528.421 252.905 M 84.907 255.974 C 81.111 259.585, 80.784 260.280, 81.322 263.598 C 82.049 268.077, 84.028 270.362, 89.382 272.906 C 93.647 274.931, 122.139 281.360, 124.419 280.811 C 127.099 280.166, 94.405 252, 90.976 252 C 89.935 252, 87.204 253.788, 84.907 255.974 M 169.500 261.806 C 166.525 262.442, 162.203 265.784, 161.504 267.988 C 160.529 271.061, 162.667 273.796, 168.286 276.664 C 174.020 279.590, 191 285.184, 191 284.146 C 191 283.787, 187.963 280.111, 184.250 275.976 C 180.537 271.841, 176.150 266.865, 174.500 264.918 C 172.440 262.486, 170.874 261.512, 169.500 261.806 M 446.855 268.754 C 444.300 271.914, 440.179 276.680, 437.698 279.344 L 433.185 284.188 436.843 283.535 C 440.705 282.845, 451.125 279.429, 454.500 277.747 C 458.351 275.828, 461 272.649, 461 269.948 C 461 267.014, 458.721 264.436, 457.044 265.473 C 456.470 265.828, 456 265.416, 456 264.559 C 456 263.608, 455.123 263.001, 453.750 263.004 C 452.219 263.006, 450.016 264.844, 446.855 268.754 M 83 265.289 C 83 266.231, 84.744 267.849, 87 269 C 89.200 270.122, 91 270.570, 91 269.996 C 91 269.421, 89.763 268.491, 88.250 267.930 C 86.737 267.369, 84.938 266.169, 84.250 265.264 C 83.092 263.739, 83 263.741, 83 265.289 M 93 271 C 93 271.550, 93.477 272, 94.059 272 C 94.641 272, 94.840 271.550, 94.500 271 C 94.160 270.450, 93.684 270, 93.441 270 C 93.198 270, 93 270.450, 93 271 M 96 272.031 C 96 272.564, 96.675 273, 97.500 273 C 98.325 273, 99 272.823, 99 272.607 C 99 272.391, 98.325 271.955, 97.500 271.638 C 96.675 271.322, 96 271.499, 96 272.031 M 75.500 281.161 C 69.681 284.361, 67.968 292.439, 72.482 295.396 C 77.865 298.923, 111.044 304.942, 110.977 302.379 C 110.964 301.896, 107.751 299.700, 103.836 297.500 C 99.921 295.300, 93.314 290.462, 89.154 286.750 C 81.597 280.006, 79.306 279.068, 75.500 281.161 M 155.229 282.311 C 154.003 282.858, 153 283.912, 153 284.653 C 153 285.394, 152.438 285.887, 151.750 285.750 C 150.940 285.588, 150.500 286.733, 150.500 289 C 150.500 292.158, 150.946 292.721, 155.071 294.770 C 159.834 297.135, 179.403 302.366, 181.221 301.760 C 182.260 301.413, 161.885 281.874, 159.665 281.087 C 158.938 280.830, 159.016 281.300, 159.872 282.337 C 161.512 284.324, 160.708 284.565, 158.801 282.658 C 157.822 281.679, 156.856 281.585, 155.229 282.311 M 538.833 281.750 C 537.888 283.877, 517.600 299.710, 513.500 301.519 C 509.267 303.388, 517.872 303.124, 529.593 301.025 C 543.303 298.571, 550.554 295.791, 551.391 292.668 C 552.679 287.867, 552.031 285.158, 549.096 283.068 C 546.293 281.073, 539.521 280.203, 538.833 281.750 M 458.450 285.775 C 456.223 287.824, 450.823 292.622, 446.450 296.439 C 442.078 300.255, 439.361 303.053, 440.414 302.657 C 441.466 302.261, 443.941 301.699, 445.914 301.408 C 452.197 300.480, 465.403 296.778, 468.250 295.145 C 472.547 292.682, 471.475 291.882, 466.750 294.027 C 464.413 295.088, 461.825 295.956, 461 295.956 C 460.175 295.956, 461.517 295.041, 463.982 293.923 C 469.921 291.229, 471.898 289.327, 471.267 286.913 C 470.626 284.461, 467.221 281.992, 464.527 282.025 C 463.412 282.039, 460.678 283.726, 458.450 285.775 M 145.695 303.111 C 143.200 304.562, 141.760 308.682, 142.962 310.928 C 144.018 312.902, 147.084 314.268, 154.100 315.890 C 159.440 317.124, 172 318.458, 172 317.791 C 172 317.541, 169.746 315.876, 166.991 314.091 C 164.237 312.306, 159.651 308.856, 156.801 306.423 C 151.571 301.959, 148.996 301.191, 145.695 303.111 M 472 302.778 C 471.175 303.057, 466.225 306.693, 461 310.858 C 455.775 315.024, 451.313 318.560, 451.083 318.716 C 448.376 320.562, 473.052 316.113, 476.879 314.065 C 481.801 311.431, 477.288 300.989, 472 302.778 M 452 420.255 C 452 420.560, 454.016 421.991, 456.480 423.435 C 458.944 424.879, 463.877 428.297, 467.443 431.030 C 471.010 433.764, 474.765 436, 475.789 436 C 478.246 436, 482 431.924, 482 429.258 C 482 426.658, 477.984 423.373, 473.134 422.006 C 468.956 420.828, 452 419.424, 452 420.255 M 155 421.692 C 150.397 422.464, 145.516 424.239, 143.750 425.781 C 141.110 428.087, 141.536 432.490, 144.635 434.927 C 148.098 437.651, 148.578 437.582, 153.397 433.665 C 155.654 431.831, 160.645 428.231, 164.489 425.665 L 171.479 421 164.489 421.136 C 160.645 421.211, 156.375 421.461, 155 421.692 M 450.935 444.500 C 455.891 448.625, 460.435 452, 461.032 452 C 461.629 452, 461.844 452.443, 461.510 452.985 C 461.175 453.526, 462.386 454.884, 464.201 456.003 L 467.500 458.036 470.769 454.512 C 473.142 451.954, 473.914 450.310, 473.588 448.511 C 472.970 445.102, 472.298 444.206, 469.140 442.572 C 466.733 441.328, 446.618 437.006, 443.212 437.002 C 442.504 437.001, 445.979 440.375, 450.935 444.500 M 512.450 437.920 C 512.753 438.409, 515.363 440.159, 518.250 441.810 C 521.138 443.460, 527.452 448.228, 532.283 452.405 C 537.114 456.582, 541.659 460, 542.384 460 C 545.182 460, 550.087 457.706, 551.021 455.961 C 552.657 452.904, 552.137 447.444, 549.945 444.657 C 547.178 441.139, 539.838 439.104, 527.539 438.443 C 522.017 438.147, 516.240 437.707, 514.700 437.467 C 513.160 437.227, 512.148 437.430, 512.450 437.920 M 89.169 439.075 C 82.564 439.932, 74.338 442.539, 72.332 444.410 C 69.616 446.944, 70.872 456.097, 74.262 458.471 C 78.211 461.237, 80.818 460.328, 88.160 453.627 C 92 450.123, 97.821 445.735, 101.096 443.877 C 111.412 438.026, 111.403 438.052, 103 438.159 C 98.875 438.211, 92.651 438.623, 89.169 439.075 M 170 440.064 C 164.225 441.086, 157.475 442.520, 155 443.250 C 150.677 444.525, 150.488 444.742, 150.193 448.777 C 149.945 452.171, 150.368 453.459, 152.398 455.489 C 156.255 459.346, 158.857 458.721, 165.034 452.456 C 168.040 449.407, 172.863 445.282, 175.750 443.290 C 178.637 441.298, 181 439.292, 181 438.834 C 181 438.375, 180.887 438.046, 180.750 438.103 C 180.613 438.160, 175.775 439.042, 170 440.064 M 467.892 446.058 C 469.207 447.154, 470.524 447.809, 470.819 447.515 C 471.456 446.877, 467.933 444.063, 466.500 444.065 C 465.950 444.066, 466.576 444.963, 467.892 446.058 M 438.122 458.190 C 440.664 460.560, 444.687 464.975, 447.061 468 C 453.015 475.586, 454.769 476.888, 457.906 476.054 C 460.203 475.444, 460.534 474.792, 460.796 470.365 C 461.047 466.127, 460.706 464.979, 458.561 462.834 C 456.288 460.560, 445.518 456.510, 436.500 454.536 C 433.566 453.894, 433.602 453.975, 438.122 458.190 M 180 457.925 C 169.336 461.392, 163.385 464.412, 161.956 467.081 C 160.655 469.513, 161.463 472.450, 163.147 471.409 C 163.870 470.963, 164.039 471.128, 163.595 471.845 C 163.203 472.480, 163.378 473, 163.985 473 C 164.591 473, 164.955 473.788, 164.794 474.750 C 164.575 476.054, 165.287 476.577, 167.585 476.801 C 170.272 477.063, 171.293 476.354, 175.505 471.301 C 178.164 468.110, 182.610 463.137, 185.385 460.250 C 188.161 457.363, 189.997 455.036, 189.466 455.081 C 188.935 455.125, 184.675 456.405, 180 457.925 M 498 459.730 C 498 459.912, 499.680 461.510, 501.733 463.281 C 503.787 465.051, 510.771 471.337, 517.254 477.250 C 530.526 489.355, 532.572 490.144, 537.455 485.047 C 541.124 481.218, 542.234 473.021, 539.494 469.993 C 536.127 466.273, 519.970 461.524, 506.129 460.186 C 501.658 459.753, 498 459.549, 498 459.730 M 113.500 460.668 C 102.779 461.987, 83.531 467.918, 81.765 470.447 C 80.704 471.969, 80.835 478.436, 81.990 481.473 C 83.334 485.009, 87.817 489, 90.443 489 C 91.653 489, 94.324 487.204, 96.547 484.897 C 98.721 482.641, 105.787 476.294, 112.250 470.793 C 118.713 465.292, 124 460.613, 124 460.395 C 124 459.952, 118.074 460.106, 113.500 460.668 M 426.570 478.250 C 435.746 492.409, 438.696 496, 441.148 496 C 443.695 496, 449 493.240, 449 491.915 C 449 491.347, 448.480 491.203, 447.845 491.595 C 447.124 492.041, 446.963 491.869, 447.415 491.138 C 447.813 490.494, 448.510 490.197, 448.964 490.478 C 449.839 491.018, 451 488.746, 451 486.495 C 451 483.177, 445.190 478.638, 433.668 472.957 C 427.023 469.681, 421.066 467, 420.432 467 C 419.797 467, 422.559 472.063, 426.570 478.250 M 524.083 468.373 C 526.186 470.254, 530.824 471.715, 532.059 470.885 C 533.298 470.053, 533.289 469.945, 532 470.119 C 531.175 470.230, 529.233 469.799, 527.685 469.160 C 524.891 468.009, 523.284 467.657, 524.083 468.373 M 194 472.832 C 185.892 476.387, 176.811 481.879, 175.480 484.032 C 174.392 485.793, 177.007 491.775, 179.610 493.480 C 183.549 496.061, 186.160 495.050, 189.500 489.649 C 191.150 486.981, 195.086 481.244, 198.246 476.899 C 201.406 472.555, 203.656 469.024, 203.246 469.053 C 202.836 469.082, 198.675 470.783, 194 472.832 M 209 484.209 C 205.975 486.351, 201.979 489.542, 200.120 491.301 C 195.174 495.982, 188.591 506.607, 191.907 504.558 C 192.405 504.249, 192.596 504.829, 192.330 505.845 C 192.011 507.067, 192.916 508.593, 195 510.347 C 196.734 511.806, 198.519 513, 198.966 513 C 201.276 513, 204.154 508.668, 206.558 501.571 C 208.035 497.210, 210.549 490.733, 212.145 487.177 C 213.740 483.621, 214.923 480.623, 214.773 480.514 C 214.623 480.405, 212.025 482.067, 209 484.209 M 441 480.393 C 441 480.609, 441.698 481.054, 442.552 481.382 C 443.442 481.723, 443.843 481.555, 443.493 480.989 C 442.906 480.038, 441 479.583, 441 480.393 M 409 482.371 C 409 482.638, 410.526 485.476, 412.390 488.678 C 414.255 491.880, 417.292 498.270, 419.139 502.877 C 420.986 507.484, 423.061 511.470, 423.751 511.735 C 425.593 512.441, 429.629 511.229, 431.430 509.427 C 432.294 508.564, 433 506.268, 433 504.325 C 433 501.286, 432.057 499.866, 426.237 494.147 C 420.595 488.601, 409 480.680, 409 482.371 M 488 484.686 C 491.250 486.936, 498.654 494.401, 508.106 504.956 L 515.679 513.413 519.823 512.171 C 524.013 510.916, 525.519 509.164, 527.077 503.733 C 528.224 499.734, 527.025 497.802, 521.156 494.191 C 515.857 490.930, 497.228 484.587, 490 483.581 L 485.500 482.955 488 484.686 M 122.441 485.878 C 105.383 490.763, 95 496.790, 95 501.806 C 95 507.745, 102.030 513.962, 107.261 512.649 C 108.549 512.326, 111.661 509.212, 114.332 505.575 C 116.955 502.002, 122.754 495.686, 127.217 491.539 L 135.333 484 131.916 484.071 C 130.037 484.110, 125.773 484.923, 122.441 485.878 M 225.453 498.157 C 209.503 513.462, 206.576 520.836, 213.509 528.250 C 216.438 531.382, 221.853 532.004, 224.361 529.496 C 225.189 528.669, 226.606 524.506, 227.510 520.246 C 230.017 508.442, 232.934 496.813, 234.164 493.718 C 234.772 492.188, 235.017 490.683, 234.708 490.375 C 234.400 490.066, 230.235 493.568, 225.453 498.157 M 395.601 494.707 C 396.443 497.343, 398.598 505.350, 400.389 512.500 C 403.372 524.408, 403.871 525.579, 406.325 526.444 C 410.542 527.929, 414.352 524.551, 415.038 518.719 C 415.367 515.924, 415.203 514.374, 414.618 514.736 C 414.080 515.069, 413.928 514.629, 414.272 513.734 C 415.287 511.088, 404.220 497.256, 396.785 491.877 L 394.070 489.913 395.601 494.707 M 441.507 492.989 C 441.157 493.555, 441.558 493.723, 442.448 493.382 C 444.180 492.717, 444.497 492, 443.059 492 C 442.541 492, 441.843 492.445, 441.507 492.989 M 372.637 505.250 C 373.351 508.688, 374.482 517.095, 375.150 523.932 C 376.502 537.772, 377.159 539.068, 383.819 541.064 C 387.371 542.128, 388.050 542.023, 390.814 539.979 C 394.552 537.216, 396.455 532.947, 395.551 529.349 C 394.456 524.984, 386.707 513.787, 379.482 506.128 C 375.784 502.207, 372.439 499, 372.048 499 C 371.658 499, 371.923 501.813, 372.637 505.250 M 147 502.882 C 137.114 506.072, 118.156 517.443, 114.077 522.630 C 110.456 527.233, 112.991 535.195, 119.304 539.044 C 123.274 541.464, 127.222 541.547, 129.189 539.250 C 130.419 537.814, 150.874 506.535, 153.385 502.250 C 154.318 500.659, 153.699 500.721, 147 502.882 M 195 502 C 195 502.550, 195.477 503, 196.059 503 C 196.641 503, 196.840 502.550, 196.500 502 C 196.160 501.450, 195.684 501, 195.441 501 C 195.198 501, 195 501.450, 195 502 M 468.167 501.856 C 468.566 502.881, 473.538 510.526, 485 527.737 C 494.673 542.261, 495.890 542.988, 503.012 538.493 C 508.467 535.049, 511.493 528.712, 509.885 524.099 C 508.052 518.842, 495.306 510.676, 478.533 504.013 C 470.884 500.975, 467.554 500.282, 468.167 501.856 M 244.722 511.250 C 236.118 524.258, 235 526.431, 235 530.149 C 235 534.501, 236.650 538.652, 238.691 539.435 C 239.473 539.735, 241.662 539.333, 243.556 538.541 L 247 537.102 247.051 528.301 C 247.080 523.460, 247.440 516.462, 247.853 512.750 C 248.266 509.038, 248.512 506, 248.399 506 C 248.287 506, 246.632 508.363, 244.722 511.250 M 263.309 515.509 C 259.033 522.198, 253.881 534.497, 253.773 538.272 C 253.654 542.450, 259.714 548.201, 263.166 547.186 C 269.471 545.333, 269.469 545.338, 268.140 532.862 C 267.474 526.613, 266.832 519.029, 266.714 516.009 L 266.500 510.517 263.309 515.509 M 287.394 514.128 C 286.179 515.710, 280.647 530.587, 279.075 536.500 C 277.282 543.243, 277.704 549.422, 280.105 551.595 C 282.767 554.003, 290.379 554.049, 292.756 551.672 C 294.267 550.161, 294.258 549.382, 292.634 541.269 C 291.669 536.446, 290.332 528.058, 289.663 522.628 C 288.765 515.336, 288.172 513.114, 287.394 514.128 M 411.797 517.390 C 412.028 519.367, 412.618 520.736, 413.108 520.433 C 414.381 519.646, 414.210 517.670, 412.689 515.589 C 411.535 514.011, 411.428 514.227, 411.797 517.390 M 337.667 515.667 C 337.300 516.033, 337 518.511, 337 521.173 C 337 528.169, 334.147 546.118, 332.771 547.776 C 329.753 551.412, 341.946 554.875, 346.254 551.605 C 349.951 548.799, 350.237 545.041, 347.478 535.519 C 346.061 530.630, 343.531 524.126, 341.855 521.065 C 338.270 514.515, 338.509 514.824, 337.667 515.667 M 312.162 532.719 C 309.839 541.949, 307.952 550.211, 307.969 551.081 C 307.998 552.573, 310.217 554.084, 314.306 555.399 C 316.823 556.209, 322.609 553.599, 323.981 551.036 C 325.891 547.467, 321.274 524.673, 317.148 517.300 C 316.691 516.484, 314.693 522.666, 312.162 532.719 M 357.597 530.163 C 356.849 545.272, 357.034 546.046, 361.733 547.455 C 364.893 548.402, 369 544.141, 369 539.914 C 369 536.532, 361.686 518.814, 359.562 517.052 C 358.558 516.218, 358.153 518.918, 357.597 530.163 M 162.443 524.653 C 148.625 531.924, 135 544.893, 135 550.773 C 135 557.203, 143.134 563.604, 147.997 561.002 C 148.938 560.498, 151.854 555.121, 154.477 549.053 C 157.100 542.985, 161.215 534.565, 163.621 530.342 C 166.028 526.119, 167.860 522.526, 167.691 522.358 C 167.523 522.190, 165.161 523.223, 162.443 524.653 M 455.850 525.250 C 460.083 532.015, 466.128 543.739, 468.611 550 C 472.489 559.779, 473.483 561, 477.558 561 C 483.643 561, 489 555.690, 489 549.660 C 489 545.173, 474.355 532.183, 460.702 524.561 C 454.553 521.128, 453.375 521.295, 455.850 525.250 M 183.478 535.166 C 173.923 542.771, 162.100 556.077, 158.138 563.684 C 155.278 569.175, 157.754 577.787, 162.967 580.483 C 170.490 584.373, 174.003 581.646, 176.984 569.603 C 179.804 558.208, 184.153 543.957, 186.855 537.250 C 188.019 534.362, 188.630 532, 188.213 532 C 187.797 532, 185.666 533.425, 183.478 535.166 M 437.644 541.554 C 439.457 546.758, 442.576 557.200, 444.574 564.758 C 446.573 572.316, 448.667 579.063, 449.227 579.750 C 450.439 581.238, 456.830 581.395, 460.434 580.025 C 463.542 578.844, 466.991 573.486, 466.996 569.834 C 467.004 564.139, 446.243 538.936, 437.309 533.796 L 434.347 532.092 437.644 541.554 M 207.362 553.282 C 184.293 576.819, 179.144 589.418, 188.625 599.128 C 192.165 602.754, 192.779 603, 198.269 603 C 201.493 603, 204.955 602.559, 205.961 602.021 C 208.441 600.694, 210 595.801, 210 589.344 C 210 582.659, 212.355 566.441, 215.105 554.181 C 216.255 549.056, 217.016 544.683, 216.796 544.463 C 216.577 544.243, 212.331 548.212, 207.362 553.282 M 405 545.758 C 405 546.277, 406.093 551.157, 407.429 556.601 C 409.935 566.809, 411.494 576.682, 412.767 590.397 C 413.417 597.394, 413.808 598.523, 416.209 600.311 C 419.970 603.113, 429.105 603.816, 432.536 601.569 C 439.136 597.244, 440.792 588.471, 436.578 580.155 C 432.443 571.995, 420.078 557.556, 409.750 548.828 C 407.137 546.620, 405 545.239, 405 545.758 M 232.133 571.673 C 226.907 578.726, 218 596.342, 218 599.623 C 218 605.562, 223.678 613, 228.212 613 C 229.280 613, 231.455 611.699, 233.046 610.108 L 235.938 607.216 235.389 595.858 C 235.087 589.611, 235.232 580.337, 235.711 575.250 C 236.190 570.163, 236.527 566, 236.459 566 C 236.391 566, 234.444 568.553, 232.133 571.673 M 386.834 588.250 C 387.077 602.943, 387.519 608.864, 388.447 609.827 C 390.193 611.639, 397.260 612.467, 399.725 611.147 C 402.794 609.505, 405.268 603.505, 404.444 599.703 C 403.464 595.176, 397.580 583.770, 391.831 575.250 C 389.141 571.263, 386.840 568, 386.720 568 C 386.599 568, 386.650 577.112, 386.834 588.250 M 288.621 574.177 C 283.900 584.949, 280.424 599.664, 279.277 613.734 C 278.782 619.810, 278.859 620.059, 282.284 623.484 C 285.173 626.373, 286.538 627, 289.940 627 C 293.913 627, 301.193 624.115, 302.481 622.030 C 302.820 621.482, 301.732 616.188, 300.062 610.266 C 296.384 597.228, 293.007 580.024, 293.003 574.309 C 292.999 568.158, 291.282 568.106, 288.621 574.177 M 329.651 571.667 C 329.352 573.225, 328.831 576.525, 328.494 579 C 327.201 588.495, 323.688 604.826, 321.323 612.341 C 319.966 616.653, 319.104 620.828, 319.407 621.617 C 320.094 623.407, 328.296 627, 331.697 627 C 334.887 627, 341.836 623.156, 342.414 621.072 C 344.016 615.301, 343.776 612.359, 340.574 598.500 C 336.985 582.971, 334.335 574.744, 331.716 571.005 L 330.195 568.834 329.651 571.667 M 258.506 573.811 C 253.073 582.021, 245 604.844, 245 611.993 C 245 618.500, 253.969 623.486, 261.314 621.061 C 266.845 619.236, 268.360 616.929, 267.038 612.341 C 265.332 606.421, 263 586.466, 263 577.788 C 263 573.337, 262.578 570, 262.014 570 C 261.472 570, 259.893 571.715, 258.506 573.811 M 359.176 585.750 C 358.514 594.413, 357.301 604.200, 356.480 607.500 C 354.618 614.982, 355.188 617.534, 359.277 620.027 C 363.411 622.548, 367.414 622.526, 371.568 619.958 C 379.436 615.095, 377.990 604.037, 366.179 578.750 C 363.932 573.938, 361.707 570, 361.236 570 C 360.765 570, 359.838 577.087, 359.176 585.750" stroke="none"  fill-rule="evenodd"/ fill="#3498db">
</svg>