<svg xmlns="http://www.w3.org/2000/svg" width="878" height="708" viewBox="0 0 878 708" version="1.1">
	<path d="M 389.500 20.658 C 379.455 23.062, 362.178 28.846, 356.630 31.661 C 351.114 34.460, 345.088 39.991, 342.304 44.812 C 340.814 47.391, 339.300 49.725, 338.938 50 C 338.575 50.275, 337.534 51.953, 336.624 53.730 C 334.635 57.613, 335.336 64, 338.115 67.309 L 339.956 69.500 345.728 63.298 C 348.903 59.887, 354.995 53.047, 359.268 48.098 C 372.119 33.210, 381.243 26.550, 396.500 20.918 C 400.732 19.356, 401.039 19.084, 398.500 19.147 C 396.850 19.188, 392.800 19.868, 389.500 20.658 M 452 35.563 C 436.491 37.201, 426.453 39.278, 413.238 43.582 C 393.098 50.142, 378.767 59.026, 355.685 79.259 C 343.437 89.995, 336.625 93.897, 328.867 94.622 C 324.569 95.024, 322.841 94.709, 320.190 93.040 C 313.028 88.532, 311.965 76.039, 317.855 65.603 L 320.947 60.124 317.280 61.657 C 306.316 66.237, 292.143 79.051, 285.365 90.510 C 280.334 99.016, 278.736 103.597, 276.100 117.085 C 273.448 130.653, 270.425 141.312, 267.628 146.960 C 261.320 159.694, 258.174 165.042, 252.649 172.422 C 249.322 176.865, 246.082 180.950, 245.447 181.500 C 244.813 182.050, 241.906 185.425, 238.987 189 C 236.068 192.575, 232.341 196.066, 230.705 196.758 L 227.730 198.017 228.226 191.081 C 228.651 185.151, 229.552 182.507, 234.450 172.835 C 237.601 166.615, 241.658 159.494, 243.468 157.013 C 247.525 151.446, 252.551 141.518, 253.345 137.500 C 254.784 130.218, 255.025 125.871, 254.079 124.248 C 253.454 123.175, 253.049 123.004, 253.030 123.805 C 252.961 126.794, 238.886 144.851, 233.086 149.393 C 232.308 150.002, 225.539 156.575, 218.044 164 C 201.594 180.296, 190.778 195.811, 180.744 217.500 C 167.977 245.099, 166.824 278.520, 177.518 311 C 181.742 323.829, 183.026 328.800, 183.624 334.634 C 184.173 339.990, 183.987 341.357, 182.485 343.017 C 178.362 347.573, 172.116 344.402, 165.458 334.371 C 158.600 324.039, 148.884 296.933, 147.429 284.075 C 147.048 280.709, 146.394 277.743, 145.975 277.485 C 144.829 276.776, 144.218 280.247, 143.064 294 C 141.408 313.747, 141.240 320.670, 142.105 333.500 C 143.772 358.216, 147.758 373.355, 158.428 395.500 C 166.509 412.271, 174.033 423.282, 187.118 437.486 C 199.128 450.524, 201.976 455.325, 202.145 462.824 C 202.332 471.121, 198.868 474.714, 191.775 473.580 C 186.187 472.686, 180.736 469.672, 175.313 464.476 C 172.744 462.014, 170.489 460, 170.302 460 C 169.563 460, 171.480 465.881, 174.620 473.247 C 181.797 490.087, 193.853 502.936, 210.776 511.785 C 220.059 516.639, 236.221 523, 239.271 523 C 241.880 523, 256.045 529.014, 260.715 532.105 C 267.102 536.331, 269.232 539.344, 269.760 544.902 C 270.135 548.852, 269.725 550.205, 266.848 554.500 C 263.072 560.140, 257.876 563.261, 249.303 565.041 C 246.299 565.664, 244.062 566.395, 244.331 566.665 C 244.601 566.934, 249.699 568.264, 255.661 569.620 C 263.012 571.293, 271.970 572.387, 283.500 573.020 C 305.085 574.207, 319.613 577.574, 329.168 583.606 C 333.654 586.438, 334.748 588.393, 333.016 590.481 C 332 591.705, 328.518 591.844, 311.154 591.356 C 292.032 590.817, 289.907 590.935, 282.500 592.945 C 273.391 595.416, 264 599.427, 264 600.847 C 264 601.393, 266.001 601.202, 268.659 600.402 C 274.997 598.495, 284.091 598.668, 292.500 600.856 C 300.058 602.822, 302.501 603.934, 323 614.739 C 349.082 628.486, 365.291 633.656, 385.485 634.667 C 407.891 635.789, 426.278 631.935, 454.500 620.201 C 469.018 614.165, 476.930 611.889, 482.313 612.200 L 487.500 612.500 487.806 616.184 C 488.085 619.528, 487.532 620.457, 481.806 626.262 C 471.259 636.955, 444.320 653.874, 433.527 656.582 C 432.137 656.931, 431 657.687, 431 658.261 C 431 658.965, 434.824 659.086, 442.746 658.634 C 490.160 655.926, 526.784 641.399, 554.732 614.215 C 560.363 608.739, 568.400 598.849, 576.442 587.500 C 587.779 571.501, 598.180 563.415, 602.649 567.124 C 605.316 569.337, 607.838 575.492, 609.395 583.585 C 610.233 587.938, 611.092 592.400, 611.305 593.500 C 612.209 598.183, 621.876 571.160, 625.583 553.585 C 630.823 528.745, 647.977 496.147, 655.265 497.182 C 657.212 497.459, 657.539 498.186, 657.805 502.827 C 658.210 509.900, 656.314 515.319, 646.866 534.098 C 637.928 551.864, 635.347 561.102, 636.342 571.764 C 636.979 578.583, 638.479 582.684, 639.355 580 C 639.624 579.175, 640.378 576.025, 641.031 573 C 641.683 569.975, 643.301 565.229, 644.627 562.453 C 647.185 557.094, 647.795 556.345, 662.916 540 C 677.798 523.913, 680.211 521.121, 686.684 512.500 C 691.981 505.444, 702 489.802, 702 488.587 C 702 488.341, 703.295 485.296, 704.879 481.820 C 711.238 467.861, 715.118 451.682, 715.751 436.490 C 716.529 417.811, 714.590 406.732, 704.450 371.915 C 700.364 357.885, 699.554 353.189, 700.423 348.560 C 702.907 335.319, 718.783 349.444, 729.052 374.029 C 732.575 382.464, 736.117 392.966, 738.067 400.759 C 738.790 403.651, 739.703 405.676, 740.094 405.259 C 741.048 404.241, 743.002 379.864, 742.992 369.107 C 742.976 352.375, 738.551 325.240, 733.402 310.297 C 730.161 300.891, 722.110 284.581, 716.914 276.897 C 713.247 271.475, 705.853 262.959, 693.992 250.499 C 684.915 240.963, 679.505 228.091, 681.401 220.540 C 682.239 217.199, 687.479 214.009, 692.136 214.004 C 695.948 214, 706.991 220.447, 708.964 223.829 C 709.788 225.241, 709.944 225.262, 709.970 223.960 C 710.043 220.245, 706.666 210.224, 703.287 204.129 C 698.030 194.646, 694.463 190.484, 686.344 184.361 C 677.655 177.808, 669.860 174.503, 646.911 167.639 C 627.340 161.786, 621.315 158.798, 616.958 152.783 C 611.606 145.395, 613.649 134.420, 621.491 128.439 C 623.421 126.967, 625 125.425, 625 125.011 C 625 123.344, 615.671 122.069, 600.849 121.710 C 586.169 121.355, 584.846 121.159, 579.528 118.558 C 573.461 115.589, 570.835 112.108, 572.841 109.691 C 575.289 106.742, 581.797 105.929, 601.231 106.147 C 619.874 106.355, 634 104.920, 634 102.817 C 634 102.367, 634.486 102, 635.081 102 C 636.677 102, 650.256 95.090, 651.999 93.391 C 653.315 92.109, 653.071 92.087, 649.999 93.215 C 647.692 94.062, 641.049 94.500, 630.500 94.500 C 610.598 94.500, 606.159 93.309, 580 80.955 C 549.949 66.763, 537.406 63.019, 519.881 63.007 C 506.896 62.998, 495.133 64.931, 480 69.561 C 446.268 79.879, 444.043 80.431, 439.302 79.662 C 435.055 78.972, 434.036 77.725, 434.015 73.185 C 433.981 65.699, 449.759 54.782, 475.500 44.484 C 480.450 42.504, 487.602 40.021, 491.392 38.966 C 495.183 37.911, 498.499 36.834, 498.760 36.573 C 500.734 34.599, 467.850 33.889, 452 35.563 M 527 39.059 C 527 39.641, 526.641 39.896, 526.202 39.625 C 525.225 39.021, 524.101 39.793, 521.504 42.850 C 519.510 45.199, 519.510 45.200, 521.504 44.850 C 522.602 44.658, 523.793 43.600, 524.150 42.500 C 524.772 40.588, 524.805 40.595, 524.900 42.656 C 524.978 44.338, 525.463 44.692, 527.102 44.263 C 528.334 43.941, 529.570 44.290, 530.087 45.107 C 530.802 46.235, 530.972 46.183, 530.985 44.833 C 530.993 43.917, 530.438 42.940, 529.750 42.662 C 529.003 42.361, 529.205 42.126, 530.250 42.079 C 531.212 42.036, 532.036 41.212, 532.079 40.250 C 532.126 39.205, 532.361 39.003, 532.662 39.750 C 533.347 41.448, 535.486 41.325, 537 39.500 C 538.081 38.197, 537.507 38, 532.622 38 C 529.332 38, 527 38.439, 527 39.059 M 532 43.559 C 532 44.416, 532.457 44.835, 533.016 44.490 C 533.575 44.144, 533.774 43.443, 533.457 42.931 C 532.600 41.544, 532 41.802, 532 43.559 M 523 46.557 C 519.929 47.690, 519.806 47.855, 522 47.909 C 523.375 47.942, 525.162 47.551, 525.971 47.039 C 528.445 45.474, 526.702 45.192, 523 46.557 M 272.250 53.662 C 270.183 54.496, 270.834 56.888, 273.082 56.719 C 275.776 56.516, 277.927 52.962, 275.285 53.079 C 274.303 53.122, 272.938 53.385, 272.250 53.662 M 607.933 70.067 C 606.254 71.746, 606.097 72.412, 607.097 73.617 C 608.699 75.547, 612.993 75.002, 614.399 72.691 C 615.278 71.247, 615.109 70.592, 613.559 69.441 C 611.005 67.545, 610.386 67.614, 607.933 70.067 M 252.571 91.571 C 249.876 94.266, 251.279 101, 254.535 101 C 255.644 101, 256 99.664, 256 95.500 C 256 89.785, 255.235 88.908, 252.571 91.571 M 511.235 91.821 C 509.841 92.019, 509.225 92.596, 509.632 93.321 C 510.075 94.111, 509.849 94.087, 508.947 93.250 C 508.206 92.563, 506.453 92.045, 505.050 92.100 L 502.500 92.199 505 93 C 507.269 93.727, 506.987 93.996, 503.500 94.429 C 502.950 94.497, 502.050 94.816, 501.500 95.138 C 500.950 95.460, 499.150 96.037, 497.500 96.420 C 494.905 97.022, 473.609 106.574, 465.846 110.617 C 462.790 112.209, 460.614 112.455, 463.271 110.908 C 464.245 110.341, 464.812 109.506, 464.532 109.051 C 464.251 108.597, 464.756 108.288, 465.653 108.363 C 466.551 108.438, 467.453 108.027, 467.659 107.449 C 467.892 106.796, 466.705 106.553, 464.525 106.807 C 462.235 107.075, 461.254 107.614, 461.700 108.358 C 462.113 109.048, 461.765 108.999, 460.819 108.233 C 459.203 106.925, 453.559 109.495, 434.660 120.146 C 430.899 122.265, 427.438 124, 426.969 124 C 426.501 124, 425.843 124.445, 425.507 124.989 C 425.156 125.557, 425.662 125.763, 426.698 125.474 C 427.689 125.197, 427.044 125.651, 425.265 126.482 C 423.486 127.313, 421.109 128.782, 419.983 129.747 C 418.857 130.711, 417.500 131.556, 416.968 131.625 C 414.690 131.919, 414.577 132.080, 416 133 C 416.901 133.582, 417.025 133.975, 416.309 133.985 C 413.604 134.019, 413.988 131.645, 417.139 128.846 C 420.274 126.062, 420.332 125.903, 418 126.487 C 413.517 127.608, 403.233 128.275, 400.604 127.616 C 392.448 125.568, 387.199 115.118, 388.407 103.329 C 389.169 95.890, 388.424 95.461, 382.364 99.851 C 376.574 104.046, 373.421 108.220, 368.360 118.390 C 362.564 130.040, 358.656 134.745, 349.997 140.502 C 346.154 143.057, 341.172 146.913, 338.924 149.073 C 336.676 151.233, 334.311 152.993, 333.668 152.985 C 332.998 152.976, 333.139 152.556, 334 152 C 334.825 151.467, 335.024 151.024, 334.441 151.015 C 333.859 151.007, 332.509 151.708, 331.441 152.574 C 330.374 153.440, 330.063 153.863, 330.750 153.515 C 331.438 153.167, 332 153.389, 332 154.008 C 332 154.632, 331.208 154.883, 330.224 154.571 C 326.558 153.407, 307.235 175.649, 300.749 188.500 C 296.336 197.242, 295.531 201.192, 297.416 204.838 C 299.260 208.403, 300.259 208.635, 304.422 206.464 C 306.767 205.241, 307.517 205.193, 308.214 206.220 C 308.832 207.130, 308.999 206.955, 308.792 205.618 C 308.565 204.158, 310.404 202.763, 317 199.394 C 340.412 187.434, 357.820 180.863, 366.250 180.803 C 368.863 180.784, 371 180.371, 371 179.885 C 371 178.813, 378.659 178.688, 379.253 179.750 C 379.483 180.162, 379.535 179.938, 379.367 179.250 C 379.200 178.563, 379.409 178, 379.831 178 C 380.254 178, 381.206 178.563, 381.947 179.250 C 383.037 180.262, 383.139 180.230, 382.483 179.080 C 381.881 178.025, 382.100 177.824, 383.336 178.299 C 384.251 178.650, 385 178.543, 385 178.062 C 385 177.581, 386.012 177.396, 387.250 177.651 C 389.071 178.027, 388.940 177.793, 386.561 176.426 C 384.944 175.498, 382.430 174.644, 380.975 174.530 C 379.520 174.415, 377.735 173.955, 377.010 173.506 C 376.134 172.965, 375.931 173.079, 376.405 173.845 C 377.523 175.656, 375.882 175.196, 374.279 173.250 C 372.905 171.583, 372.863 171.583, 373.387 173.250 C 373.971 175.108, 372.540 175.682, 371.503 174.005 C 370.484 172.356, 367 170.777, 367 171.965 C 367 172.534, 367.648 173, 368.441 173 C 369.234 173, 370.160 173.449, 370.499 173.999 C 371.287 175.273, 366.901 174.849, 365.350 173.500 C 364.621 172.866, 364.542 172.082, 365.135 171.355 C 365.650 170.726, 365.954 169.826, 365.813 169.355 C 365.072 166.895, 369.593 162.952, 375.827 160.620 C 387.581 156.223, 392.967 155.055, 406.880 153.886 C 426.756 152.215, 454 154.149, 454 157.231 C 454 157.719, 453.584 157.861, 453.076 157.547 C 452.567 157.233, 452.005 157.736, 451.826 158.666 C 451.539 160.153, 451.319 160.180, 450 158.893 C 448.682 157.606, 448.292 157.641, 446.777 159.187 C 445.138 160.861, 445.764 161.170, 459.724 165.588 C 467.793 168.141, 477.568 171.686, 481.447 173.466 C 490.195 177.480, 502.660 186.678, 512.052 196.052 C 520.097 204.081, 520.300 203.266, 513.484 190.300 C 506.547 177.104, 502.153 171.077, 492.307 161.252 C 486.015 154.973, 481.174 151.100, 477.230 149.189 C 469.483 145.437, 467.765 144.811, 468.507 146.011 C 468.843 146.555, 468.679 147, 468.142 147 C 467.606 147, 466.902 146.438, 466.579 145.750 C 466.255 145.063, 466.162 145.772, 466.371 147.326 C 466.643 149.342, 466.444 149.844, 465.676 149.076 C 464.303 147.703, 463 147.694, 463 149.059 C 463 149.641, 463.450 149.840, 464 149.500 C 464.550 149.160, 465 149.584, 465 150.441 C 465 152.360, 464.531 152.382, 461.715 150.594 C 459.858 149.416, 450.332 146.115, 440.063 143.092 C 438.722 142.698, 437.484 141.953, 437.312 141.437 C 436.942 140.325, 446.085 137.425, 454.434 136.008 C 462.079 134.709, 474.058 134.678, 472.029 135.961 C 471.220 136.473, 470.919 137.253, 471.361 137.694 C 471.802 138.136, 472.739 137.710, 473.442 136.748 C 474.918 134.730, 478 134.399, 478 136.259 C 478 136.952, 478.883 138.071, 479.963 138.745 C 481.605 139.770, 481.833 139.728, 481.356 138.485 C 481.043 137.668, 480.384 137, 479.893 137 C 479.402 137, 479 136.480, 479 135.845 C 479 135.154, 479.735 135.355, 480.829 136.345 C 481.835 137.255, 483.661 138, 484.888 138 C 486.114 138, 486.900 138.354, 486.632 138.786 C 486.365 139.218, 487.014 139.571, 488.073 139.571 C 490.783 139.571, 490.486 139.111, 486.750 137.516 C 483.605 136.173, 483.693 136.146, 489.500 136.675 C 497.181 137.374, 510.411 141.722, 522.776 147.610 C 547.712 159.486, 549.553 160.052, 548.411 155.500 C 548.066 154.125, 548.020 153, 548.309 153 C 549.973 153, 558.702 157.413, 561.206 159.520 C 563.690 161.610, 565.188 162, 570.732 162 L 577.310 162 575.417 159.909 C 574.376 158.758, 570.819 156.232, 567.512 154.294 C 564.206 152.356, 559.854 149.467, 557.842 147.874 C 552.498 143.643, 537.175 135.719, 535.546 136.344 C 534.776 136.639, 533.608 136.233, 532.951 135.441 C 532.293 134.648, 531.189 134, 530.498 134 C 528.562 134, 489.138 120.471, 488.127 119.460 C 486.430 117.763, 499.037 108.505, 511.700 102.150 C 517.224 99.378, 522.018 96.396, 522.353 95.523 C 523.305 93.041, 517.129 90.985, 511.235 91.821 M 495.028 108.549 C 493.119 109.897, 491.994 110.998, 492.528 110.995 C 493.063 110.992, 494.850 109.883, 496.500 108.531 C 500.352 105.373, 499.512 105.384, 495.028 108.549 M 213.073 115.635 C 210.550 118.842, 210.663 118.155, 210.533 131 C 210.439 140.246, 210.138 141.969, 208.009 145.429 L 205.591 149.358 209.897 146.938 C 215.617 143.723, 221 137.663, 221 134.438 C 221 132.989, 221.433 132.150, 222 132.500 C 222.556 132.843, 223.004 132.092, 223.009 130.809 C 223.013 129.539, 223.297 126.170, 223.639 123.323 C 224.211 118.561, 224.039 117.941, 221.485 115.573 C 217.955 112.302, 215.681 112.319, 213.073 115.635 M 652.674 115.719 C 651.164 118.162, 656.541 125.026, 659.500 124.432 C 662.610 123.807, 665 122.639, 665 121.744 C 665 119.177, 653.892 113.748, 652.674 115.719 M 221.158 120 C 221.158 121.375, 221.385 121.938, 221.662 121.250 C 221.940 120.563, 221.940 119.438, 221.662 118.750 C 221.385 118.063, 221.158 118.625, 221.158 120 M 328.500 127.081 C 325.750 128.174, 320.575 129.705, 317 130.484 C 309.342 132.153, 301.307 135.863, 298.500 139.027 L 296.500 141.282 303.249 140.756 C 308.769 140.326, 311.228 139.507, 316.749 136.255 C 320.462 134.068, 325.614 131.086, 328.198 129.628 C 330.782 128.169, 333.171 126.532, 333.507 125.988 C 334.272 124.752, 334.469 124.708, 328.500 127.081 M 431.250 126.584 C 429.462 127.366, 428 128.206, 428 128.451 C 428 129.189, 433.961 126.873, 434.561 125.902 C 435.227 124.823, 435.323 124.803, 431.250 126.584 M 499.251 126.584 C 500.589 127.922, 517.535 137.691, 517.927 137.350 C 518.162 137.146, 517.375 136.066, 516.177 134.950 C 514.980 133.835, 514 133.234, 514 133.616 C 514 133.998, 513.212 133.638, 512.250 132.816 C 508.616 129.713, 496.637 123.970, 499.251 126.584 M 639 136.161 C 639 137.631, 644.409 145.135, 647.650 148.161 C 651.679 151.922, 678.587 160.892, 688.987 161.941 C 694.012 162.447, 698.041 163.462, 700.034 164.724 C 704.303 167.427, 713.054 177.643, 715.500 182.778 C 716.600 185.087, 717.762 186.982, 718.083 186.989 C 719.937 187.025, 716.586 175.080, 712.133 165.777 C 706.548 154.111, 703.770 151.126, 691.224 143.311 L 684.500 139.122 673.500 139.655 C 655.261 140.539, 649.072 140, 642.750 136.975 C 640.688 135.989, 639 135.622, 639 136.161 M 466 137 C 467.939 138.253, 469 138.253, 469 137 C 469 136.450, 467.988 136.007, 466.750 136.015 C 464.931 136.028, 464.787 136.216, 466 137 M 455 137.640 C 455 138.602, 458.325 140.932, 459.750 140.968 C 460.438 140.986, 461 140.240, 461 139.311 C 461 137.906, 461.353 138.001, 463.101 139.878 C 464.256 141.118, 465.480 141.853, 465.822 141.512 C 466.163 141.170, 465.780 140.473, 464.971 139.961 C 463.683 139.146, 463.687 139.020, 465 138.945 C 466.010 138.887, 465.847 138.579, 464.500 138 C 462.141 136.986, 455 136.716, 455 137.640 M 457.500 139 C 457.840 139.550, 458.541 140, 459.059 140 C 459.577 140, 460 139.550, 460 139 C 460 138.450, 459.298 138, 458.441 138 C 457.584 138, 457.160 138.450, 457.500 139 M 521.923 140.398 C 523.491 142.270, 528.838 145.075, 529.297 144.266 C 529.536 143.845, 527.767 142.554, 525.366 141.398 C 522.965 140.241, 521.416 139.791, 521.923 140.398 M 497.500 141 C 497.840 141.550, 498.316 142, 498.559 142 C 498.802 142, 499 141.550, 499 141 C 499 140.450, 498.523 140, 497.941 140 C 497.359 140, 497.160 140.450, 497.500 141 M 500.619 141.957 C 501.104 142.407, 502.625 143.072, 504 143.435 C 506.331 144.051, 506.365 144.010, 504.500 142.837 C 502.203 141.390, 499.302 140.733, 500.619 141.957 M 508 144.393 C 508 144.609, 508.698 145.054, 509.552 145.382 C 510.442 145.723, 510.843 145.555, 510.493 144.989 C 509.906 144.038, 508 143.583, 508 144.393 M 514 147.036 C 514 147.631, 513.480 147.797, 512.845 147.405 C 512.107 146.948, 511.963 147.132, 512.447 147.914 C 512.862 148.586, 513.832 148.895, 514.601 148.600 C 515.371 148.304, 516 148.451, 516 148.924 C 516 149.398, 516.675 150.045, 517.500 150.362 C 519.914 151.288, 519.224 149.377, 516.500 147.592 C 515.049 146.642, 514 146.408, 514 147.036 M 302.547 154.552 C 295.591 158.180, 282.767 170.126, 280 175.556 C 279.175 177.175, 277.775 179.305, 276.889 180.289 C 274.709 182.710, 272.048 191.246, 271.330 198.121 C 270.707 204.081, 271.675 215.017, 272.822 214.975 C 274.065 214.929, 280.823 199.579, 282.057 194 C 283.229 188.701, 287.451 179, 288.584 179 C 288.887 179, 288.863 180.012, 288.531 181.250 C 288.041 183.074, 288.224 182.980, 289.495 180.750 C 290.358 179.238, 291.612 177.993, 292.282 177.985 C 293.062 177.975, 292.971 177.635, 292.026 177.037 C 291.055 176.423, 290.294 176.513, 289.792 177.303 C 288.437 179.434, 288.880 176.207, 290.421 172.718 C 291.966 169.222, 300.399 160.017, 306 155.712 C 308.853 153.519, 309.130 153.021, 307.500 153.017 C 306.400 153.015, 304.171 153.705, 302.547 154.552 M 306.059 157.919 C 305.276 159.004, 304.333 159.706, 303.963 159.477 C 303.157 158.979, 298.392 163.872, 298.750 164.831 C 298.887 165.199, 298.514 165.500, 297.919 165.500 C 296.213 165.500, 294.076 169.035, 294.739 170.761 C 295.123 171.763, 294.936 172.078, 294.220 171.636 C 293.604 171.255, 292.628 171.827, 292.050 172.906 C 290.638 175.545, 290.720 176, 292.607 176 C 293.716 176, 294.009 175.467, 293.554 174.280 C 293.191 173.335, 293.193 172.860, 293.558 173.225 C 293.924 173.590, 295.377 172.452, 296.787 170.695 C 298.198 168.938, 301.350 165.407, 303.792 162.848 C 306.234 160.289, 308.063 157.689, 307.857 157.070 C 307.639 156.417, 306.884 156.774, 306.059 157.919 M 455 157.393 C 455 157.609, 455.698 158.054, 456.552 158.382 C 457.442 158.723, 457.843 158.555, 457.493 157.989 C 456.906 157.038, 455 156.583, 455 157.393 M 301.405 162.250 L 299.500 164.500 301.750 162.595 C 303.864 160.805, 304.455 160, 303.655 160 C 303.465 160, 302.453 161.012, 301.405 162.250 M 172.070 171.946 C 170.125 173.162, 169.875 175.738, 171.636 176.414 C 173.210 177.018, 174.364 175.008, 173.835 172.585 C 173.604 171.528, 173.057 171.330, 172.070 171.946 M 344 175.912 C 344 176.928, 346.557 176.776, 347.638 175.696 C 348.020 175.313, 347.358 175, 346.167 175 C 344.975 175, 344 175.410, 344 175.912 M 372.628 177.208 C 373.314 178.316, 376 178.201, 376 177.062 C 376 176.546, 375.131 176.190, 374.069 176.270 C 373.007 176.350, 372.359 176.772, 372.628 177.208 M 565 176.922 C 565 179.090, 571.990 186.692, 578 191.061 C 581.575 193.660, 586.739 197.972, 589.475 200.643 C 596.924 207.916, 602.694 212.076, 608.274 214.196 C 614.927 216.724, 620.879 220.919, 625.892 226.614 C 630.387 231.722, 630.803 231.115, 628.415 222.932 C 625.984 214.603, 622.377 209.213, 613.567 200.744 C 606.893 194.327, 604.205 192.483, 598 190.064 C 593.875 188.456, 587.961 186.010, 584.857 184.630 C 581.753 183.249, 578.934 182.399, 578.593 182.741 C 578.251 183.082, 579.183 184.625, 580.663 186.170 C 582.143 187.715, 583.058 189.276, 582.695 189.638 C 581.708 190.625, 574.337 185.190, 570.035 180.302 C 566.263 176.017, 565 175.169, 565 176.922 M 460 192.171 C 460 194.008, 468.408 201.598, 471.723 202.754 C 475.900 204.210, 477.697 202.904, 476.464 199.309 C 474.891 194.724, 460 188.268, 460 192.171 M 312 204 C 312 204.550, 312.477 205, 313.059 205 C 313.641 205, 313.840 204.550, 313.500 204 C 313.160 203.450, 312.684 203, 312.441 203 C 312.198 203, 312 203.450, 312 204 M 543.736 207.250 C 543.248 208.668, 544.797 213.869, 546.268 215.750 C 547.827 217.744, 550 217.198, 550 214.812 C 550 212.642, 546.114 206.020, 544.833 206.007 C 544.467 206.003, 543.973 206.563, 543.736 207.250 M 483.658 212.675 C 483.296 213.037, 483 213.660, 483 214.060 C 483 215.181, 485.870 216.019, 486.457 215.070 C 487.119 213.999, 484.540 211.793, 483.658 212.675 M 393 216.634 C 387.579 217.664, 380.668 220.332, 378.937 222.063 C 377.935 223.065, 375.176 224.457, 372.807 225.157 C 368.403 226.457, 365.386 228.524, 366.742 229.313 C 367.159 229.555, 371.713 229.837, 376.862 229.940 C 382.012 230.042, 387.843 230.660, 389.821 231.313 C 392.874 232.321, 393.538 233.089, 394.224 236.402 C 394.669 238.549, 396.150 241.423, 397.516 242.789 C 398.882 244.155, 400 245.647, 400 246.105 C 400 246.563, 400.675 246.678, 401.500 246.362 C 402.450 245.997, 403 246.375, 403 247.393 C 403 248.277, 402.467 249, 401.814 249 C 401.162 249, 399.646 249.923, 398.446 251.051 C 397.039 252.372, 392.938 253.783, 386.924 255.016 C 381.789 256.068, 376.217 257.471, 374.543 258.133 C 367.991 260.726, 357.238 267.782, 351.125 273.500 C 341.919 282.111, 336.052 291.948, 343.127 286.909 C 349.629 282.280, 368.056 273.645, 375 271.974 C 376.925 271.511, 380.525 270.598, 383 269.946 C 385.475 269.293, 392.450 268.780, 398.500 268.804 C 408.060 268.843, 409.185 268.679, 407.092 267.554 C 404.814 266.330, 404.936 266.255, 409.342 266.167 C 411.904 266.115, 414 266.429, 414 266.863 C 414 267.298, 415.319 267.460, 416.931 267.223 C 423.110 266.316, 438.208 273.830, 445.187 281.286 L 448.195 284.500 445.954 280 C 442.160 272.382, 434.464 261.648, 429.975 257.712 C 427.624 255.652, 425.963 253.703, 426.284 253.383 C 426.605 253.062, 425.547 250.977, 423.934 248.750 C 422.291 246.482, 421 243.421, 421 241.794 C 421 239.328, 421.645 238.610, 425.250 237.058 C 430.888 234.632, 441.388 234.369, 444.747 236.570 C 446.121 237.470, 446.939 237.711, 446.564 237.104 C 446.189 236.497, 446.359 236, 446.941 236 C 447.523 236, 448 236.408, 448 236.906 C 448 237.404, 450.921 239.179, 454.492 240.849 C 458.062 242.520, 463.857 245.938, 467.369 248.444 C 470.881 250.950, 474.076 253, 474.470 253 C 476.430 253, 465.765 242.205, 458.150 236.481 C 448.448 229.188, 438.136 223.555, 427 219.465 C 420.635 217.126, 417.685 216.668, 407.500 216.434 C 400.900 216.283, 394.375 216.373, 393 216.634 M 333.149 222.556 C 322.241 226.497, 317.625 228.992, 317.205 231.175 C 316.729 233.644, 320.943 234.190, 323.706 232.017 C 325.019 230.984, 327.423 229.846, 329.047 229.490 C 330.671 229.133, 332 228.464, 332 228.003 C 332 227.542, 334.137 226.367, 336.750 225.392 C 342.335 223.306, 346 221.124, 346 219.885 C 346 218.390, 342.889 219.037, 333.149 222.556 M 264.828 235.043 L 250.085 250.085 248.043 248.043 C 246.919 246.919, 245.566 246, 245.035 246 C 243.939 246, 242.182 248.954, 241.660 251.674 C 241.108 254.547, 235.165 267.043, 231.991 272.002 C 230.406 274.478, 227.748 277.309, 226.083 278.292 C 223.380 279.889, 222.758 279.926, 220.275 278.642 C 216.141 276.504, 214.461 274.256, 210.431 265.468 C 205.209 254.081, 203.985 250.454, 202.512 242 C 201.560 236.537, 201.177 235.520, 201.103 238.257 C 201.046 240.323, 200.329 246.482, 199.508 251.945 C 197.922 262.507, 198.157 269.299, 200.583 283 C 203.105 297.242, 205.734 305.506, 215.672 330.432 C 225.818 355.878, 229.307 366.322, 230.457 374.685 L 231.170 379.871 226.335 384.536 C 223.676 387.102, 220.600 389.605, 219.500 390.098 C 218.400 390.592, 216.773 391.518, 215.884 392.158 C 214.603 393.080, 212.846 392.748, 207.384 390.548 C 203.598 389.024, 199.938 387.554, 199.250 387.281 C 197.526 386.598, 197.678 389.519, 199.574 393.516 C 201.436 397.438, 207.674 404.019, 211.087 405.660 C 212.414 406.299, 217.029 408.510, 221.342 410.575 C 231.248 415.317, 240.721 424.091, 258.101 444.619 C 270.867 459.698, 275.566 464.225, 281.718 467.372 L 284.937 469.019 283.101 464.737 C 282.092 462.381, 279.693 457.990, 277.770 454.977 C 272.082 446.066, 269.271 439.849, 266.090 429.141 C 258.347 403.077, 258.162 374.588, 265.566 348.526 C 269.497 334.692, 280.063 313.933, 289.757 301 C 299.998 287.337, 309.236 278.258, 320.439 270.846 C 325.422 267.549, 329.387 264.435, 329.250 263.926 C 329.112 263.417, 329.675 263, 330.500 263 C 331.325 263, 331.888 262.458, 331.750 261.795 C 331.613 261.133, 331.950 260.552, 332.500 260.504 C 333.805 260.390, 340 257.082, 340 256.499 C 340 256.252, 338.762 256.528, 337.250 257.114 C 334.430 258.205, 332.376 258.751, 328 259.572 C 326.625 259.830, 324.600 260.464, 323.500 260.982 C 322.400 261.500, 317.603 263.693, 312.841 265.855 C 303.301 270.187, 288.558 280.476, 289.563 282.102 C 289.914 282.669, 289.593 283.050, 288.850 282.948 C 288.108 282.846, 286.714 282.816, 285.753 282.882 C 283.414 283.040, 261.853 303.952, 262.668 305.272 C 263.025 305.850, 262.827 306.011, 262.220 305.636 C 261.211 305.013, 259.972 306.671, 251.669 319.750 C 250.186 322.087, 248.238 324, 247.342 324 C 245.905 324, 245.781 322.792, 246.289 313.750 C 246.869 303.414, 250.127 288.827, 254.112 278.715 C 255.233 275.872, 256.338 272.186, 256.567 270.523 C 256.797 268.860, 257.615 265.165, 258.386 262.310 C 259.157 259.456, 259.511 256.844, 259.173 256.506 C 258.835 256.168, 259.017 255.578, 259.577 255.196 C 260.138 254.813, 261.669 252.925, 262.980 251 C 264.291 249.075, 267.012 245.674, 269.026 243.442 C 276.022 235.689, 283.905 220, 280.805 220 C 280.126 220, 272.937 226.769, 264.828 235.043 M 598 224.417 C 598 224.647, 600.085 228.359, 602.633 232.667 C 608.600 242.754, 614.122 257.020, 613.913 261.808 C 613.824 263.839, 615.111 270.450, 616.772 276.500 C 618.433 282.550, 620.090 288.918, 620.454 290.652 C 621.397 295.143, 621.818 333.995, 620.930 334.544 C 620.523 334.795, 620.318 333.313, 620.474 331.250 C 620.630 329.188, 620.554 328.400, 620.304 329.500 C 618.709 336.531, 614.711 351.795, 613.543 355.315 C 612.778 357.617, 612.006 360.625, 611.826 362 C 611.647 363.375, 610.912 365.121, 610.192 365.879 C 609.473 366.637, 609.120 367.869, 609.407 368.617 C 609.693 369.364, 609.444 369.869, 608.851 369.738 C 608.259 369.607, 606.813 371.103, 605.637 373.061 C 603.556 376.528, 596.014 388.740, 593 393.523 C 590.806 397.005, 570.210 416.266, 562.838 421.731 C 555.375 427.263, 556.536 428.316, 566.456 425.015 C 574.350 422.388, 591.675 410.110, 601 400.536 C 607.295 394.073, 613.533 389.196, 610 393.500 C 608.605 395.199, 608.648 395.249, 610.613 394.202 C 614.296 392.240, 628.563 376.168, 630.999 371.237 C 633.432 366.311, 634.846 364.787, 636.202 365.625 C 637.289 366.297, 637.154 381.835, 635.983 390.856 C 634.843 399.637, 628.324 419.200, 622.612 430.981 C 616.698 443.178, 601.359 466.340, 599.824 465.391 C 599.371 465.111, 599 465.610, 599 466.500 C 599 467.390, 598.565 467.849, 598.033 467.520 C 597.501 467.191, 596.492 467.840, 595.792 468.961 C 595.092 470.083, 594.145 471, 593.688 471 C 593.231 471, 592.115 471.742, 591.207 472.650 C 590.300 473.557, 586.507 476.518, 582.779 479.230 C 579.050 481.942, 576 484.522, 576 484.964 C 576 485.405, 575.055 486.014, 573.899 486.316 C 572.744 486.618, 572.076 487.315, 572.416 487.864 C 572.755 488.413, 572.506 489.187, 571.862 489.585 C 571.131 490.037, 570.959 489.876, 571.405 489.155 C 571.797 488.520, 571.641 488, 571.059 488 C 570.477 488, 570 488.477, 570 489.059 C 570 489.641, 569.480 489.797, 568.845 489.405 C 568.130 488.962, 567.962 489.130, 568.405 489.845 C 568.797 490.480, 568.609 491, 567.988 491 C 567.366 491, 566.190 491.667, 565.374 492.483 C 563.706 494.151, 562.586 498.374, 564.052 497.468 C 564.574 497.146, 564.997 497.246, 564.993 497.691 C 564.983 498.840, 558.176 503.333, 556.445 503.333 C 555.650 503.333, 555 503.739, 555 504.234 C 555 504.729, 556.013 504.858, 557.250 504.520 C 559.017 504.037, 559.160 504.120, 557.918 504.908 C 557.048 505.460, 552.448 507.038, 547.696 508.415 C 536.467 511.669, 520.183 512.183, 514.915 509.450 C 512.992 508.452, 512.061 507.488, 512.784 507.244 C 513.490 507.006, 514.675 507.315, 515.417 507.931 C 516.434 508.775, 516.900 508.704, 517.308 507.640 C 517.751 506.484, 515.843 506.200, 506.721 506.065 C 500.601 505.974, 492.422 505.522, 488.546 505.062 C 484.671 504.601, 480.825 504.227, 480 504.231 C 479.175 504.235, 477.600 503.872, 476.500 503.425 C 472.580 501.831, 477.332 505.628, 482.571 508.276 C 490.810 512.440, 503.445 515.912, 513.958 516.901 C 523.809 517.828, 526 518.373, 526 519.899 C 526 521.375, 510.939 527.229, 497.277 531.062 C 484.179 534.738, 459.135 534.247, 444 530.018 C 429.006 525.828, 420.210 523.052, 415.575 521.049 C 412.866 519.879, 410.030 519.158, 409.273 519.449 C 408.418 519.777, 408.165 519.543, 408.604 518.831 C 409.086 518.051, 408.623 517.865, 407.155 518.249 C 405.968 518.560, 405.220 518.453, 405.493 518.012 C 405.765 517.570, 405.279 516.937, 404.412 516.605 C 402.184 515.750, 402 515.818, 402 517.500 C 402 518.325, 401.550 519, 401 519 C 400.450 519, 400 518.550, 400 518 C 400 517.450, 399.518 517, 398.929 517 C 397.576 517, 395 514.468, 395 513.139 C 395 511.967, 391.131 510.484, 389.106 510.881 C 388.340 511.031, 387.328 510.557, 386.856 509.827 C 386.146 508.727, 385.852 508.730, 385.132 509.845 C 384.489 510.842, 384.094 510.509, 383.603 508.554 C 383.201 506.951, 382.500 506.191, 381.816 506.614 C 381.172 507.012, 380.967 506.863, 381.336 506.266 C 381.690 505.692, 380.410 504.025, 378.490 502.560 C 375.718 500.446, 375 500.229, 375 501.508 C 375 502.473, 375.464 502.831, 376.158 502.403 C 376.962 501.905, 377.130 502.395, 376.708 504.010 C 376.310 505.531, 376.833 507.396, 378.223 509.416 C 383.358 516.877, 391.507 526.173, 396.564 530.335 C 401.003 533.990, 402.660 534.785, 405.273 534.512 C 407.048 534.327, 407.938 534.399, 407.250 534.671 C 406.563 534.944, 406.036 535.917, 406.079 536.833 C 406.129 537.883, 406.346 538.035, 406.664 537.244 C 406.943 536.553, 407.582 536.242, 408.085 536.553 C 408.588 536.864, 409 536.716, 409 536.226 C 409 535.735, 409.675 535.333, 410.500 535.333 C 411.325 535.333, 412 535.933, 412 536.667 C 412 537.400, 412.477 538, 413.059 538 C 413.641 538, 413.821 538.480, 413.459 539.067 C 413.096 539.654, 413.407 540.050, 414.150 539.948 C 417.046 539.551, 417.797 540.084, 417.395 542.250 C 417.166 543.487, 417.245 543.938, 417.572 543.250 C 417.899 542.563, 419.367 542.036, 420.833 542.079 C 422.300 542.122, 422.919 542.391, 422.208 542.676 C 421.211 543.076, 421.184 543.517, 422.090 544.608 C 423.092 545.816, 423.439 545.781, 424.473 544.368 C 425.595 542.834, 426.102 542.846, 431.487 544.540 C 434.679 545.544, 438.463 547.454, 439.896 548.786 C 441.328 550.117, 444.188 552.069, 446.250 553.123 C 448.313 554.178, 450 555.482, 450 556.020 C 450 558.077, 446.106 556.867, 442.691 553.750 C 440.734 551.962, 437.414 549.660, 435.316 548.634 C 433.217 547.608, 430.306 546.145, 428.846 545.384 C 425.723 543.756, 425 543.671, 425 544.933 C 425 545.446, 425.877 546.144, 426.949 546.484 C 428.157 546.867, 428.681 547.669, 428.326 548.592 C 428.012 549.411, 428.147 549.968, 428.627 549.828 C 429.107 549.689, 430.453 550.105, 431.619 550.752 C 432.784 551.400, 434.059 551.608, 434.452 551.215 C 434.845 550.822, 435.017 551.175, 434.833 552 C 434.609 553.008, 435.294 553.507, 436.924 553.522 C 438.257 553.534, 439.516 554.048, 439.722 554.666 C 439.928 555.283, 440.974 555.558, 442.048 555.277 C 443.122 554.996, 444 555.194, 444 555.717 C 444 556.970, 442.807 557.067, 427.324 557.070 C 406.918 557.074, 383.966 552.536, 370.674 545.870 C 368.378 544.718, 360.743 540.621, 353.707 536.764 C 346.672 532.907, 340.676 529.991, 340.384 530.283 C 339.276 531.390, 343.049 536.800, 347.436 540.394 C 349.946 542.451, 351.993 544.666, 351.985 545.317 C 351.975 546.038, 351.548 545.914, 350.890 545 C 349.993 543.752, 349.911 543.808, 350.406 545.332 C 350.733 546.339, 351 547.352, 351 547.582 C 351 547.812, 352.012 548.007, 353.250 548.015 C 355.049 548.028, 355.201 548.220, 354.008 548.974 C 352.820 549.725, 352.770 550.170, 353.758 551.158 C 354.441 551.841, 355 552.780, 355 553.244 C 355 554.357, 351.705 553.779, 350.765 552.500 C 350.321 551.896, 350.025 552.037, 350.015 552.857 C 350.006 553.650, 349.377 553.975, 348.500 553.638 C 347.606 553.295, 347 553.629, 347 554.464 C 347 556.450, 351.036 557.551, 352.110 555.857 C 352.734 554.871, 352.974 555.129, 352.985 556.802 C 352.996 558.487, 353.871 559.416, 356.250 560.270 C 358.038 560.911, 359.821 561.343, 360.214 561.230 C 360.607 561.117, 360.687 561.653, 360.392 562.422 C 359.735 564.133, 360.016 564.216, 377.500 567.476 C 385.200 568.912, 394.858 570.951, 398.963 572.007 C 404.727 573.491, 406.627 573.652, 407.307 572.714 C 407.898 571.900, 408.003 572.077, 407.626 573.250 C 407.316 574.212, 407.499 575.056, 408.031 575.125 C 408.564 575.194, 409.450 575.362, 410 575.500 C 410.550 575.638, 411.675 575.806, 412.500 575.875 C 413.325 575.944, 413.887 576.563, 413.750 577.250 C 413.612 577.938, 414.063 578.388, 414.750 578.250 C 415.438 578.113, 416 578.450, 416 579 C 416 579.550, 416.450 580, 417 580 C 417.550 580, 418 579.351, 418 578.557 C 418 577.653, 418.746 577.259, 420 577.500 C 421.100 577.712, 422 577.461, 422 576.943 C 422 576.424, 422.450 576, 423 576 C 425.308 576, 423.699 577.997, 419.500 580.344 C 417.025 581.727, 415 582.441, 415 581.930 C 415 579.515, 413.151 581.384, 412.591 584.364 C 412.080 587.089, 410.343 588.996, 403.444 594.400 C 398.361 598.382, 395.205 601.523, 395.618 602.191 C 396.002 602.812, 395.862 603.033, 395.302 602.687 C 394.748 602.344, 393.441 602.754, 392.397 603.598 C 390.669 604.995, 391.358 605.089, 400.111 604.654 C 419.898 603.671, 438.546 596.151, 474.828 574.524 C 489.717 565.649, 506.301 558.952, 513.916 558.741 C 520.622 558.555, 525.292 560.826, 528.747 565.952 C 531.510 570.052, 531.564 573.619, 528.987 581.839 C 526.779 588.883, 526.484 592, 528.027 592 C 530.434 592, 542.459 580.697, 548.321 572.924 C 555.736 563.093, 561.427 552.894, 566.133 541 C 567.984 536.325, 571.211 529.350, 573.306 525.500 C 578.915 515.191, 581.273 509.830, 586.059 496.500 C 588.429 489.900, 590.982 483.765, 591.733 482.867 C 592.484 481.969, 595.213 480.429, 597.799 479.446 C 600.385 478.462, 605.425 475.872, 609 473.691 C 628.633 461.712, 636.051 454.808, 640.430 444.438 C 644.902 433.850, 655.933 411.682, 657.542 410.050 C 658.789 408.785, 659.368 408.977, 662.063 411.550 C 669.256 418.416, 678.898 437.570, 682.569 452.286 C 684.150 458.624, 684.355 458.938, 685.689 457.034 C 687.791 454.033, 687.685 428.047, 685.527 417.500 C 683.132 405.788, 675.070 382.524, 666.936 363.850 C 656.944 340.912, 652.665 326.709, 652.669 316.500 C 652.673 307.314, 654.178 303.491, 659.343 299.552 C 662.506 297.140, 663.353 297, 674.844 297 C 681.949 297, 687 296.601, 687 296.039 C 687 294.705, 673.756 285.053, 666.500 281.098 C 663.200 279.300, 659.600 277.031, 658.500 276.057 C 657.400 275.083, 653.575 272.329, 650 269.938 C 646.315 267.473, 635.985 257.900, 626.149 247.835 C 609.540 230.838, 598 221.238, 598 224.417 M 549.667 225.667 C 548.379 226.955, 549.044 230.553, 551.576 235.993 C 554.324 241.896, 558.576 248, 559.941 248 C 561.757 248, 561.674 240.382, 559.802 235.292 C 557.465 228.933, 551.789 223.544, 549.667 225.667 M 154.729 231.537 C 148.852 239.794, 147.995 242.043, 148.078 248.984 C 148.120 252.568, 148.925 257.687, 149.867 260.360 L 151.579 265.220 152.898 262.360 C 156.332 254.919, 159.978 240.207, 159.989 233.750 C 159.995 229.818, 159.574 227, 158.979 227 C 158.418 227, 156.506 229.042, 154.729 231.537 M 376.733 234.124 C 377.412 234.808, 378.219 235.115, 378.526 234.807 C 378.834 234.499, 378.279 233.940, 377.293 233.564 C 375.868 233.022, 375.753 233.136, 376.733 234.124 M 245.352 242.760 C 245.715 243.348, 245.447 244.057, 244.756 244.336 C 243.998 244.641, 244.194 244.873, 245.250 244.921 C 247.229 245.010, 247.590 243.483, 245.845 242.405 C 245.163 241.983, 244.961 242.128, 245.352 242.760 M 721.333 247.700 C 721.333 249.368, 721.804 249.338, 723.581 247.561 C 724.833 246.310, 724.780 246.141, 723.177 246.262 C 722.163 246.338, 721.333 246.985, 721.333 247.700 M 725.708 247.318 C 725.456 247.974, 725.823 249.046, 726.523 249.699 C 727.520 250.631, 727.902 250.481, 728.287 249.009 C 728.826 246.950, 726.448 245.391, 725.708 247.318 M 249.500 248 C 249.840 248.550, 250.316 249, 250.559 249 C 250.802 249, 251 248.550, 251 248 C 251 247.450, 250.523 247, 249.941 247 C 249.359 247, 249.160 247.450, 249.500 248 M 436 247.814 C 436 249.396, 438.799 251.185, 440.702 250.819 C 443.850 250.213, 442.776 247.527, 439.250 247.187 C 437.462 247.014, 436 247.297, 436 247.814 M 506.130 249.849 C 505.023 250.590, 505.519 252.284, 508.706 258.652 C 510.877 262.990, 513.473 269.567, 514.475 273.269 C 515.477 276.971, 516.652 280, 517.087 280 C 519.644 280, 519.565 254.126, 517 251.581 C 515.148 249.743, 507.989 248.602, 506.130 249.849 M 727.833 251.138 C 726.917 252.070, 726.467 253.168, 726.833 253.576 C 727.200 253.984, 726.742 254.047, 725.815 253.716 C 724.888 253.384, 723.921 253.650, 723.667 254.306 C 723.412 254.963, 723.254 254.488, 723.315 253.250 C 723.376 252.012, 723.855 251, 724.379 251 C 724.904 251, 725.098 250.764, 724.810 250.476 C 724.522 250.189, 723.513 250.250, 722.569 250.612 C 721.288 251.103, 721.017 251.937, 721.503 253.886 C 722.266 256.942, 726.937 263.396, 727.778 262.555 C 728.095 262.239, 727.526 261.374, 726.515 260.634 C 725.377 259.803, 724.919 258.653, 725.315 257.622 C 726.118 255.530, 729.248 254.244, 729.765 255.794 C 730.038 256.614, 730.803 256.520, 732.405 255.471 C 733.645 254.658, 734.961 254.295, 735.330 254.663 C 735.698 255.032, 736 254.631, 736 253.774 C 736 252.916, 735.348 251.964, 734.551 251.658 C 733.630 251.304, 733.286 251.583, 733.608 252.422 C 733.887 253.148, 733.360 254.032, 732.437 254.386 C 731.127 254.889, 730.875 254.588, 731.286 253.013 C 731.576 251.905, 731.440 251.228, 730.982 251.511 C 730.525 251.793, 730.005 251.444, 729.826 250.734 C 729.584 249.775, 729.071 249.880, 727.833 251.138 M 245.836 252.134 C 243.307 253.060, 241.093 256, 242.924 256 C 243.398 256, 244.057 255.294, 244.388 254.431 C 244.773 253.429, 245.671 253.078, 246.877 253.461 C 248.069 253.839, 248.979 253.497, 249.350 252.530 C 250.013 250.802, 249.599 250.755, 245.836 252.134 M 245 255.059 C 245 255.641, 245.450 255.840, 246 255.500 C 246.550 255.160, 247 254.684, 247 254.441 C 247 254.198, 246.550 254, 246 254 C 245.450 254, 245 254.477, 245 255.059 M 255.910 260.126 C 252.929 264.312, 245.894 278.228, 246.469 278.802 C 246.720 279.053, 247.495 277.963, 248.192 276.379 C 248.889 274.796, 249.693 273.275, 249.980 273 C 252.893 270.201, 259.968 257, 258.555 257 C 258.325 257, 257.135 258.407, 255.910 260.126 M 740.624 260.539 C 739.659 263.053, 739.943 263.702, 741.122 261.675 C 741.706 260.671, 741.973 259.639, 741.715 259.382 C 741.458 259.124, 740.966 259.645, 740.624 260.539 M 737.166 266.876 C 736.068 267.572, 736.083 267.818, 737.249 268.265 C 738.058 268.576, 738.667 268.206, 738.667 267.405 C 738.667 266.632, 738.629 266.007, 738.583 266.015 C 738.538 266.024, 737.900 266.411, 737.166 266.876 M 744.116 266.867 C 744.043 267.724, 743.254 268.038, 742 267.710 C 740.900 267.423, 740 267.543, 740 267.977 C 740 268.823, 744.157 270.177, 744.795 269.539 C 745.005 269.328, 744.964 268.334, 744.704 267.328 C 744.445 266.323, 744.180 266.115, 744.116 266.867 M 201.519 273.871 C 201.803 277.926, 202.497 281.976, 203.059 282.871 C 203.785 284.026, 203.894 282.658, 203.434 278.173 C 202.438 268.452, 200.894 264.986, 201.519 273.871 M 207.564 268.293 C 207.940 269.279, 208.499 269.834, 208.807 269.526 C 209.115 269.219, 208.808 268.412, 208.124 267.733 C 207.136 266.753, 207.022 266.868, 207.564 268.293 M 457.372 269.474 C 456.362 272.106, 459.278 274.457, 461.846 273.082 C 463.794 272.040, 463.890 269, 461.975 269 C 461.529 269, 460.456 268.728, 459.590 268.396 C 458.632 268.028, 457.765 268.449, 457.372 269.474 M 209.564 272.293 C 209.940 273.279, 210.499 273.834, 210.807 273.526 C 211.115 273.219, 210.808 272.412, 210.124 271.733 C 209.136 270.753, 209.022 270.868, 209.564 272.293 M 395.543 278.931 C 395.226 279.443, 395.425 280.144, 395.984 280.490 C 397.177 281.227, 399 280.291, 399 278.941 C 399 277.724, 396.293 277.716, 395.543 278.931 M 561.196 285.600 C 561.146 288.845, 560.172 294.511, 559.031 298.191 C 557.394 303.470, 556.099 305.616, 552.893 308.359 C 549.244 311.483, 548.529 311.732, 545.864 310.803 C 544.233 310.234, 542.776 309.933, 542.628 310.134 C 542.479 310.335, 540.190 315.575, 537.540 321.777 C 534.890 327.979, 532.287 333.323, 531.754 333.652 C 531.173 334.011, 531.056 333.399, 531.460 332.125 C 531.831 330.956, 531.916 330, 531.648 330 C 531.380 330, 530.399 332.363, 529.468 335.250 C 525.531 347.456, 514.599 361.461, 502.250 370.117 C 499.913 371.755, 498 373.339, 498 373.636 C 498 375.005, 507.186 372.413, 513.500 369.261 C 523.605 364.216, 531.501 358.311, 539.751 349.625 C 543.735 345.431, 547.333 341.986, 547.747 341.968 C 548.161 341.951, 549.716 339.932, 551.203 337.482 C 552.861 334.750, 554.427 333.227, 555.253 333.544 C 556.939 334.191, 563.374 321.503, 565.501 313.334 C 568.062 303.502, 566.846 290.309, 562.637 282.277 C 561.360 279.840, 561.283 280.020, 561.196 285.600 M 496.598 283.735 C 495.617 284.717, 495.921 289.833, 497 290.500 C 497.550 290.840, 498 290.566, 498 289.892 C 498 289.218, 498.337 289.004, 498.750 289.417 C 499.163 289.829, 499.500 290.654, 499.500 291.250 C 499.500 291.846, 500.046 292.515, 500.713 292.738 C 502.292 293.264, 503.575 288.134, 502.349 286.192 C 501.260 284.465, 497.482 282.851, 496.598 283.735 M 285.645 285.483 C 285.332 286.299, 284.496 286.744, 283.788 286.473 C 282.609 286.021, 277 290.309, 277 291.663 C 277 292.416, 280.157 289.940, 281.668 288.002 C 282.311 287.177, 283.112 286.779, 283.450 287.116 C 283.787 287.454, 282.932 288.803, 281.549 290.115 C 280.166 291.427, 279.027 293.144, 279.017 293.932 C 279.008 294.719, 280.600 293.594, 282.556 291.432 C 286.727 286.821, 288.468 284, 287.142 284 C 286.632 284, 285.958 284.667, 285.645 285.483 M 467.531 286.950 C 466.742 288.227, 470.235 290, 473.541 290 C 475.568 290, 476.067 289.617, 475.607 288.418 C 475.273 287.548, 475 286.648, 475 286.418 C 475 285.550, 468.092 286.042, 467.531 286.950 M 437 288.500 C 437 289.333, 437.889 290, 439 290 C 440.111 290, 441 289.333, 441 288.500 C 441 287.667, 440.111 287, 439 287 C 437.889 287, 437 287.667, 437 288.500 M 378 291 C 378 291.550, 378.450 292, 379 292 C 379.550 292, 380 291.550, 380 291 C 380 290.450, 379.550 290, 379 290 C 378.450 290, 378 290.450, 378 291 M 397.751 291.745 C 395.681 292.220, 394.302 296.702, 395.773 298.173 C 397.087 299.487, 403.889 299.511, 405.194 298.206 C 407.892 295.508, 402.343 290.691, 397.751 291.745 M 353.501 301.638 C 351.151 305.225, 351.596 307, 354.845 307 C 360.487 307, 363.302 300.565, 358.001 299.787 C 355.689 299.448, 354.659 299.871, 353.501 301.638 M 420.192 300.075 C 420.389 300.666, 420.978 301.150, 421.500 301.150 C 422.022 301.150, 422.611 300.666, 422.808 300.075 C 423.005 299.484, 422.417 299, 421.500 299 C 420.583 299, 419.995 299.484, 420.192 300.075 M 317.459 303.880 C 312.637 306.070, 308.539 310.681, 305.355 317.500 C 302.126 324.413, 302.355 325.378, 306.549 322.531 C 308.501 321.206, 311.764 319.579, 313.799 318.914 C 319.025 317.207, 327.717 312.179, 328.367 310.487 C 328.667 309.704, 328.482 308.798, 327.956 308.473 C 327.430 308.148, 327 307.081, 327 306.101 C 327 305.122, 325.854 303.799, 324.453 303.161 C 321.399 301.769, 322.312 301.675, 317.459 303.880 M 536.015 308.250 C 536.007 310.313, 536.173 312, 536.383 312 C 537.250 312, 537.636 307.032, 536.864 305.815 C 536.333 304.977, 536.025 305.860, 536.015 308.250 M 271.715 310.782 C 268.333 316.997, 268.223 318.442, 271.467 314.045 C 272.824 312.206, 273.721 310.357, 273.461 309.936 C 273.200 309.515, 273.508 308.997, 274.144 308.785 C 274.780 308.573, 275.104 307.813, 274.865 307.096 C 274.626 306.379, 273.209 308.038, 271.715 310.782 M 212.086 309.500 C 212.190 311.394, 213.856 314.584, 213.914 313 C 213.945 312.175, 213.533 310.825, 213 310 C 212.467 309.175, 212.055 308.950, 212.086 309.500 M 382.350 313.052 C 380.618 314.162, 377.847 315.241, 376.192 315.450 C 372.386 315.932, 370.643 316.879, 359 324.787 C 343.634 335.224, 338.854 339.457, 329.833 350.613 C 324.896 356.717, 322.726 360.430, 321.066 365.613 C 318.206 374.538, 317.386 385.788, 319.033 393.500 L 320.314 399.500 321.566 392.902 C 323.786 381.201, 331.124 369.682, 335.329 371.296 C 336.873 371.888, 342.193 386.171, 342.361 390.171 C 342.422 391.640, 342.767 392.765, 343.127 392.671 C 343.488 392.577, 344.731 393.581, 345.891 394.903 C 347.051 396.225, 348 396.877, 348 396.353 C 348 395.829, 347.517 394.917, 346.927 394.327 C 345.269 392.669, 344.563 375.263, 345.901 369.024 C 347.462 361.746, 354.347 346.057, 359.573 337.869 C 365.321 328.863, 371.861 322.320, 382.272 315.157 C 384.872 313.368, 387 311.701, 387 311.452 C 387 310.540, 385.424 311.082, 382.350 313.052 M 403 313 C 400.828 315.172, 400.487 316.565, 401.910 317.444 C 403.412 318.373, 405.661 317.038, 406.798 314.545 C 408.564 310.668, 406.266 309.734, 403 313 M 507.667 311.667 C 507.300 312.033, 507 312.798, 507 313.367 C 507 313.993, 507.466 313.934, 508.183 313.217 C 508.834 312.566, 509.134 311.801, 508.850 311.517 C 508.566 311.233, 508.033 311.300, 507.667 311.667 M 535.015 315.250 C 535.028 317.069, 535.216 317.213, 536 316 C 537.253 314.061, 537.253 313, 536 313 C 535.450 313, 535.007 314.012, 535.015 315.250 M 488.380 316.452 C 487.683 318.267, 488.695 320, 490.452 320 C 491.968 320, 493.292 317.282, 492.444 315.910 C 491.570 314.495, 488.999 314.839, 488.380 316.452 M 259.455 317.351 C 257.178 319.855, 256.866 321.365, 259.057 319.278 C 260.339 318.056, 261.189 316.863, 260.944 316.629 C 260.700 316.394, 260.030 316.719, 259.455 317.351 M 593.718 322.810 C 590.443 327.041, 589.316 330.716, 590.831 332.231 C 593.228 334.628, 597.704 326.505, 596.847 321.314 C 596.535 319.431, 596.216 319.584, 593.718 322.810 M 516.185 326.722 C 514.856 329.305, 515.790 331.419, 517.597 329.919 C 518.369 329.279, 519 328.162, 519 327.437 C 519 325.274, 517.170 324.810, 516.185 326.722 M 440.116 327.250 C 439.991 329.137, 437 329.739, 437 327.878 C 437 327.126, 436.479 327.188, 435.424 328.063 C 434.125 329.141, 433.704 329.140, 433.033 328.054 C 432.423 327.067, 432.048 327.272, 431.542 328.868 C 430.920 330.827, 429.813 331.465, 427.676 331.094 C 427.222 331.015, 427.080 331.321, 427.360 331.773 C 427.639 332.225, 427.455 333.249, 426.949 334.048 C 426.180 335.264, 426.028 335.225, 426.015 333.809 C 426.007 332.879, 425.480 331.797, 424.845 331.405 C 424.121 330.957, 423.963 331.131, 424.421 331.872 C 424.836 332.544, 423.568 335.254, 421.471 338.173 C 419.279 341.224, 418.441 343.045, 419.396 342.678 C 420.278 342.340, 421 342.451, 421 342.924 C 421 343.398, 420.296 344.056, 419.437 344.386 C 418.577 344.716, 418.153 345.439, 418.496 345.993 C 418.838 346.547, 418.634 347, 418.043 347 C 417.452 347, 417.071 348.350, 417.197 350 C 417.407 352.758, 418.131 353.475, 420.324 353.094 C 420.777 353.015, 420.440 353.962, 419.574 355.198 C 417.532 358.113, 417.583 359.158, 419.750 358.794 C 420.921 358.597, 421.450 359.101, 421.350 360.317 C 421.267 361.316, 421.448 361.885, 421.751 361.582 C 422.054 361.279, 422.901 361.812, 423.632 362.766 C 424.800 364.288, 425.095 364.317, 426.052 363 C 426.906 361.824, 427.059 362.180, 426.759 364.646 C 426.461 367.101, 426.701 367.668, 427.852 367.226 C 428.807 366.860, 429.073 367.073, 428.605 367.830 C 428.167 368.539, 428.519 369, 429.500 369 C 430.390 369, 430.859 368.581, 430.543 368.069 C 430.226 367.557, 430.494 366.813, 431.138 366.415 C 431.828 365.988, 432.042 366.123, 431.660 366.741 C 430.937 367.911, 433.434 369.232, 434.450 368.217 C 434.805 367.861, 436.169 367.514, 437.480 367.443 C 439.543 367.333, 439.816 367.701, 439.503 370.173 C 439.305 371.745, 439.540 372.784, 440.027 372.483 C 440.514 372.182, 440.657 371.270, 440.345 370.457 C 439.943 369.408, 440.247 369.157, 441.389 369.596 C 442.275 369.936, 443 369.753, 443 369.190 C 443 368.627, 442.438 367.940, 441.750 367.662 C 441.063 367.385, 441.850 367.102, 443.500 367.034 C 445.150 366.966, 447.850 366.250, 449.500 365.444 C 451.742 364.349, 451.932 364.084, 450.250 364.395 C 449.012 364.625, 448 364.457, 448 364.023 C 448 363.589, 449.111 363.021, 450.470 362.761 C 451.828 362.501, 452.702 362.674, 452.411 363.144 C 452.120 363.615, 452.414 364, 453.063 364 C 453.935 364, 453.954 364.350, 453.138 365.333 C 452.297 366.347, 452.405 366.667, 453.589 366.667 C 454.643 366.667, 454.981 366.034, 454.633 364.706 C 454.053 362.486, 456.748 357.726, 458.109 358.568 C 459.624 359.504, 459.089 357.319, 457.476 355.980 C 456.638 355.284, 456.166 354.501, 456.428 354.238 C 456.690 353.976, 457.655 354.512, 458.571 355.429 C 460.510 357.367, 461.838 356.715, 460.134 354.661 C 459.193 353.527, 459.440 353.361, 461.491 353.754 C 463.961 354.226, 464.971 352.718, 463 351.500 C 462.450 351.160, 462 351.391, 462 352.012 C 462 352.689, 461.397 352.540, 460.500 351.643 C 458.619 349.762, 458.577 348.900, 460.399 349.600 C 461.168 349.895, 462.133 349.594, 462.543 348.931 C 463.038 348.130, 463.720 348.693, 464.579 350.613 C 465.823 353.395, 465.863 353.409, 465.685 351 C 465.583 349.625, 464.825 347.952, 464 347.282 C 462.692 346.220, 462.732 346.060, 464.309 346.032 C 465.304 346.014, 465.835 345.543, 465.490 344.984 C 465.144 344.425, 464.443 344.226, 463.931 344.543 C 463.419 344.859, 463 344.615, 463 344 C 463 343.385, 462.610 343.123, 462.134 343.417 C 461.658 343.712, 461.423 342.619, 461.613 340.990 C 461.899 338.534, 461.534 337.921, 459.479 337.405 C 457.669 336.951, 456.969 336.071, 456.884 334.142 C 456.810 332.448, 456.604 332.128, 456.311 333.250 C 456.059 334.212, 455.410 335, 454.868 335 C 454.326 335, 454.160 334.550, 454.500 334 C 454.840 333.450, 454.341 333, 453.392 333 C 452.443 333, 451.960 332.707, 452.318 332.349 C 453.042 331.624, 450.067 329.064, 448.500 329.064 C 447.950 329.064, 448.374 329.724, 449.441 330.532 C 450.509 331.339, 450.873 332, 450.250 332 C 449.627 332, 448.835 331.543, 448.490 330.984 C 448.144 330.425, 447.448 330.223, 446.942 330.536 C 446.437 330.848, 446.262 330.481, 446.554 329.719 C 446.953 328.679, 446.350 328.442, 444.136 328.767 C 441.884 329.097, 441.072 328.762, 440.709 327.350 C 440.283 325.698, 440.220 325.687, 440.116 327.250 M 625.162 329.543 C 623.487 333.220, 623.807 334.005, 625.618 330.662 C 626.464 329.100, 626.969 327.636, 626.741 327.407 C 626.512 327.179, 625.802 328.140, 625.162 329.543 M 627 331.059 C 627 331.641, 627.450 331.840, 628 331.500 C 628.550 331.160, 629 330.684, 629 330.441 C 629 330.198, 628.550 330, 628 330 C 627.450 330, 627 330.477, 627 331.059 M 626.516 334.250 C 625.600 336.968, 625.180 342.216, 625.945 341.384 C 626.946 340.295, 628.311 333, 627.514 333 C 627.197 333, 626.748 333.563, 626.516 334.250 M 381.656 339.119 C 378.354 341.063, 375.385 351, 378.106 351 C 378.714 351, 380.989 349.593, 383.160 347.873 C 386.460 345.260, 387.058 344.235, 386.804 341.631 C 386.474 338.250, 384.647 337.359, 381.656 339.119 M 458 338.833 C 458 339.292, 458.655 339.667, 459.456 339.667 C 460.257 339.667, 460.680 339.292, 460.397 338.833 C 460.114 338.375, 459.459 338, 458.941 338 C 458.423 338, 458 338.375, 458 338.833 M 400.667 345.667 C 400.300 346.033, 400 347.158, 400 348.167 C 400 350.417, 402.556 350.600, 403.396 348.410 C 404.368 345.877, 402.417 343.916, 400.667 345.667 M 479.086 347.396 C 477.513 349.292, 478.318 354.603, 480.113 354.170 C 483.032 353.465, 483.980 349.058, 481.633 347.110 C 480.597 346.250, 479.980 346.320, 479.086 347.396 M 654 347.882 C 654 348.432, 654.450 349.160, 655 349.500 C 655.550 349.840, 656 349.668, 656 349.118 C 656 348.568, 655.550 347.840, 655 347.500 C 654.450 347.160, 654 347.332, 654 347.882 M 496.750 349.112 C 494.672 350.284, 494.412 353, 496.378 353 C 497.135 353, 498.331 352.306, 499.035 351.458 C 500.708 349.442, 499.097 347.788, 496.750 349.112 M 291.106 352.592 C 288.934 355.353, 287.562 360.562, 288.193 363.650 C 288.523 365.268, 288.973 365.102, 291.785 362.327 C 294.345 359.800, 295 358.335, 295 355.136 C 295 350.075, 293.736 349.249, 291.106 352.592 M 419.744 356.224 C 419.438 357.024, 420.165 357.555, 421.692 357.648 C 423.033 357.730, 423.988 357.715, 423.815 357.615 C 423.642 357.516, 422.765 356.875, 421.867 356.192 C 420.561 355.198, 420.135 355.205, 419.744 356.224 M 577.710 360.925 C 575.626 362.502, 572.835 364.965, 571.508 366.397 C 570.181 367.829, 568.597 369, 567.989 369 C 567.380 369, 567.140 369.418, 567.456 369.928 C 567.771 370.438, 567.097 371.152, 565.958 371.513 C 564.337 372.028, 563.953 372.860, 564.193 375.335 C 564.614 379.673, 568.073 379.984, 574.002 376.218 C 577.862 373.766, 578.825 372.443, 580.762 366.929 C 584.251 356.997, 583.875 356.258, 577.710 360.925 M 456.032 361.939 C 454.804 364.235, 456.515 365.885, 458.287 364.113 C 459.104 363.296, 459.053 363, 458.093 363 C 457.342 363, 457.031 362.362, 457.362 361.500 C 458.189 359.343, 457.257 359.651, 456.032 361.939 M 448.387 368.163 C 448.698 369.748, 451 370.508, 451 369.024 C 451 368.396, 450.588 368.136, 450.085 368.447 C 449.582 368.758, 448.941 368.548, 448.660 367.981 C 448.380 367.414, 448.257 367.496, 448.387 368.163 M 435 369.167 C 435 369.625, 435.675 370, 436.500 370 C 437.325 370, 438 369.625, 438 369.167 C 438 368.708, 437.325 368.333, 436.500 368.333 C 435.675 368.333, 435 368.708, 435 369.167 M 444 368.378 C 444 368.585, 444.788 369.373, 445.750 370.128 C 447.336 371.371, 447.371 371.336, 446.128 369.750 C 444.821 368.084, 444 367.555, 444 368.378 M 431 369.810 C 431 370.347, 431.713 371.059, 432.584 371.394 C 433.557 371.767, 434.015 371.544, 433.771 370.813 C 433.273 369.318, 431 368.495, 431 369.810 M 475.750 370.112 C 473.472 371.397, 473.384 375.268, 475.643 374.823 C 476.546 374.645, 477.774 373.725, 478.370 372.778 C 479.823 370.471, 478.143 368.762, 475.750 370.112 M 545.131 371.342 C 544.573 372.015, 543.651 373.788, 543.083 375.283 C 542.287 377.376, 542.348 378, 543.350 378 C 544.887 378, 549 373.845, 549 372.293 C 549 370.636, 546.273 369.967, 545.131 371.342 M 403 381.918 C 403 386.137, 403.951 388, 406.107 388 C 408.483 388, 408.616 384.870, 406.385 381.465 C 404.237 378.186, 403 378.352, 403 381.918 M 380.175 386.662 C 380.587 390.264, 383.500 390.572, 383.500 387.014 C 383.500 385.402, 382.858 384.404, 381.675 384.176 C 380.200 383.892, 379.912 384.368, 380.175 386.662 M 339.031 389.500 C 339.031 390.050, 339.467 391.175, 340 392 C 340.533 392.825, 340.969 393.050, 340.969 392.500 C 340.969 391.950, 340.533 390.825, 340 390 C 339.467 389.175, 339.031 388.950, 339.031 389.500 M 485.200 393.200 C 483.233 395.167, 483.832 397, 486.441 397 C 489.441 397, 490.579 395.402, 488.964 393.456 C 487.495 391.687, 486.763 391.637, 485.200 393.200 M 507.250 393.496 C 505.437 395.555, 505.704 396.181, 508.240 395.820 C 509.472 395.644, 510.630 394.712, 510.813 393.750 C 511.212 391.658, 509.007 391.500, 507.250 393.496 M 434.560 396.500 C 435.732 401.736, 440.228 409.759, 446.966 418.641 C 458.137 433.367, 459 434.907, 459 440.128 C 459 444.088, 458.554 445.210, 456.250 447.042 C 453.775 449.009, 452.717 449.170, 445.684 448.640 C 433.264 447.706, 422.563 442.853, 413.462 434.029 C 409.475 430.163, 405.910 427, 405.540 427 C 404.293 427, 414.136 438.813, 420.373 444.803 C 438.696 462.397, 467.672 472.231, 487.459 467.571 C 494.620 465.884, 512.567 458.510, 513.607 456.826 C 513.970 456.240, 511.012 456.138, 505.832 456.558 C 491.458 457.725, 478.940 453.238, 474.277 445.250 C 472.158 441.619, 472.039 441, 473.457 441 C 474.371 441, 474.859 441.419, 474.543 441.931 C 473.865 443.028, 474.568 443.501, 478.150 444.356 C 480.661 444.955, 480.776 444.817, 480.350 441.744 C 479.153 433.129, 479.380 431.643, 482 430.904 C 483.375 430.517, 487.135 430.155, 490.356 430.100 C 499.384 429.946, 507.669 427.556, 520.500 421.404 C 526.811 418.377, 544.739 401.802, 541 402.450 C 538.127 402.948, 529.078 406.391, 524.722 408.644 C 519.148 411.526, 496.417 415.077, 483.693 415.053 C 473.247 415.033, 470.827 414.680, 462.693 411.983 C 453.305 408.871, 438.591 400.054, 435.428 395.645 C 433.932 393.560, 433.907 393.584, 434.560 396.500 M 398 400.500 C 398 401.417, 398.484 402.005, 399.075 401.808 C 399.666 401.611, 400.150 401.022, 400.150 400.500 C 400.150 399.978, 399.666 399.389, 399.075 399.192 C 398.484 398.995, 398 399.583, 398 400.500 M 458.667 399.667 C 457.340 400.994, 458.042 403, 459.833 403 C 462.374 403, 463.190 401.934, 461.869 400.342 C 460.638 398.859, 459.677 398.657, 458.667 399.667 M 654.195 402.679 C 655.255 402.958, 655.688 403.757, 655.350 404.813 C 654.905 406.207, 654.990 406.248, 655.840 405.048 C 657.123 403.235, 656.408 401.964, 654.191 402.116 C 652.607 402.225, 652.607 402.260, 654.195 402.679 M 415.380 404.452 C 414.683 406.267, 415.695 408, 417.452 408 C 418.982 408, 419.910 406.085, 419.269 404.250 C 418.672 402.537, 416.063 402.673, 415.380 404.452 M 364.065 407.844 C 361.397 414.284, 362.555 426.619, 366.374 432.448 C 368.732 436.047, 372.522 438.286, 374.951 437.516 C 377.722 436.636, 377.530 434.582, 374.163 429.111 C 371.005 423.978, 368.395 416.694, 367.397 410.228 C 366.577 404.916, 365.574 404.199, 364.065 407.844 M 422.015 413.680 C 422.024 414.131, 422.428 415.128, 422.914 415.896 C 423.975 417.571, 427.352 416.563, 426.755 414.749 C 426.297 413.359, 421.991 412.387, 422.015 413.680 M 477.250 417.716 C 478.762 417.945, 481.238 417.945, 482.750 417.716 C 484.262 417.487, 483.025 417.300, 480 417.300 C 476.975 417.300, 475.738 417.487, 477.250 417.716 M 554 424.892 C 554 425.566, 553.480 425.797, 552.845 425.405 C 552.101 424.945, 551.964 425.132, 552.458 425.933 C 553.004 426.815, 553.536 426.864, 554.296 426.104 C 554.885 425.515, 555.059 424.726, 554.683 424.350 C 554.308 423.974, 554 424.218, 554 424.892 M 153 427.820 C 153 428.692, 156.614 432.067, 159.042 433.462 C 159.844 433.923, 158.949 432.658, 157.054 430.650 C 153.415 426.796, 153 426.506, 153 427.820 M 214.357 430.500 C 215.182 431.325, 216.425 432, 217.120 432 C 217.828 432, 217.531 431.356, 216.441 430.532 C 213.894 428.605, 212.440 428.583, 214.357 430.500 M 146.280 431.930 C 146.175 433.325, 146.664 433.757, 148.046 433.491 C 149.098 433.289, 150.219 433.545, 150.538 434.061 C 150.857 434.578, 151.654 434.986, 152.309 434.970 C 152.964 434.953, 152.681 434.463, 151.680 433.881 C 149.921 432.857, 149.921 432.774, 151.680 431.356 C 153.373 429.992, 153.348 429.963, 151.316 430.945 C 148.578 432.267, 147.706 432.284, 148.500 431 C 148.840 430.450, 148.512 430, 147.772 430 C 147.031 430, 146.360 430.868, 146.280 431.930 M 730.606 432.794 C 728.595 436.684, 725.994 447.118, 726.032 451.144 C 726.069 455.109, 728.303 458.482, 730.366 457.690 C 731.171 457.381, 733.442 454.375, 735.414 451.011 C 739.913 443.335, 740.293 437.040, 736.516 432.750 C 733.471 429.289, 732.415 429.297, 730.606 432.794 M 218.939 442.701 C 220.240 444.462, 221.888 446.127, 222.601 446.400 C 224.757 447.228, 223.086 444.677, 219.719 442 L 216.574 439.500 218.939 442.701 M 318.526 445.250 C 318.903 447.038, 319.923 450.032, 320.792 451.903 C 322.415 455.396, 328.390 462, 329.926 462 C 331.464 462, 331.901 459.226, 330.923 455.683 C 329.969 452.229, 327 448.592, 327 450.878 C 327 453.321, 325.023 451.758, 322.095 447 C 320.403 444.250, 318.754 442, 318.430 442 C 318.106 442, 318.149 443.462, 318.526 445.250 M 557.128 463.170 C 551.705 466.893, 550.119 468.459, 551.128 469.093 C 554.694 471.332, 567 464.137, 567 459.813 C 567 457.036, 565.142 457.668, 557.128 463.170 M 255 466.429 C 255 466.792, 255.734 470.106, 256.632 473.794 C 257.936 479.154, 259.123 481.403, 262.545 485 C 264.900 487.475, 267.518 491.188, 268.362 493.250 C 269.291 495.518, 270.572 497, 271.604 497 C 273.152 497, 273.134 496.794, 271.405 494.774 C 270.357 493.549, 271.149 493.952, 273.164 495.668 C 276.564 498.563, 279.716 499.967, 286 501.384 C 287.375 501.695, 289.847 503.119, 291.493 504.550 C 295.251 507.815, 305.367 514, 306.950 514 C 307.604 514, 305.407 510.698, 302.069 506.663 C 298.731 502.627, 296 499.021, 296 498.648 C 296 498.276, 297.809 499.169, 300.020 500.632 C 302.232 502.095, 304.278 503.055, 304.568 502.765 C 305.442 501.892, 297.503 495.603, 282.600 485.363 C 274.845 480.034, 266.700 474.247, 264.500 472.502 C 259.202 468.299, 255 465.613, 255 466.429 M 526 471.355 C 526 474.425, 526.870 475.140, 529.131 473.930 C 531.657 472.578, 531.482 471.541, 528.500 470.182 C 526.226 469.146, 526 469.252, 526 471.355 M 330.571 475.571 C 328.556 477.587, 328.585 478.627, 330.678 479.430 C 332.802 480.245, 335.471 477.669, 334.668 475.578 C 333.900 473.576, 332.569 473.574, 330.571 475.571 M 402 481.550 C 402 484.949, 405.242 488.997, 410.698 492.410 C 416.828 496.244, 420.693 496.963, 421.658 494.449 C 422.486 492.290, 418.911 488.780, 411.036 484.022 C 403.814 479.658, 402 479.162, 402 481.550 M 610.530 487.704 C 608.423 493.390, 603.823 500.955, 600.859 503.605 C 596.208 507.765, 590.527 520.301, 591.731 523.750 C 591.970 524.438, 591.422 525, 590.512 525 C 589.008 525, 589 525.143, 590.429 526.571 C 591.293 527.436, 591.993 528.898, 591.985 529.821 C 591.971 531.275, 591.835 531.299, 590.966 530 C 590.091 528.693, 589.785 528.731, 588.582 530.303 C 587.553 531.647, 587.075 531.774, 586.703 530.803 C 586.428 530.086, 586.250 530.463, 586.306 531.640 C 586.370 532.957, 586.907 533.589, 587.705 533.283 C 588.434 533.003, 589 533.488, 589 534.393 C 589 535.277, 589.436 536, 589.969 536 C 590.501 536, 590.691 535.358, 590.390 534.573 C 589.990 533.531, 590.403 533.293, 591.921 533.690 C 593.110 534, 594 533.755, 594 533.117 C 594 532.502, 594.546 532.112, 595.213 532.250 C 595.881 532.387, 596.887 531.487, 597.451 530.250 C 598.014 529.013, 599.069 528, 599.796 528 C 600.523 528, 600.840 527.550, 600.500 527 C 600.160 526.450, 600.696 525.993, 601.691 525.985 C 603.225 525.972, 603.272 525.822, 602 525 C 600.651 524.128, 601.275 523.570, 603.250 523.882 C 603.663 523.947, 604 523.473, 604 522.829 C 604 522.185, 604.788 520.730, 605.750 519.596 C 607.417 517.633, 607.417 517.599, 605.750 518.890 C 604.211 520.082, 604 519.996, 604 518.181 C 604 517.047, 604.520 515.797, 605.155 515.405 C 605.938 514.920, 606.037 515.142, 605.463 516.095 C 604.769 517.246, 604.893 517.276, 606.150 516.259 C 606.994 515.576, 608.052 515.351, 608.502 515.759 C 608.952 516.166, 608.992 515.930, 608.591 515.234 C 608.190 514.537, 607.400 514.253, 606.835 514.602 C 606.235 514.973, 605.959 514.460, 606.170 513.368 C 606.370 512.341, 607.200 511.439, 608.016 511.365 C 611.231 511.074, 611.451 510.938, 610.104 510.086 C 609.308 509.582, 608.983 508.487, 609.347 507.538 C 609.698 506.622, 610.434 506.150, 610.981 506.489 C 611.551 506.840, 611.729 506.456, 611.397 505.592 C 611.078 504.760, 611.894 501.700, 613.210 498.790 C 615.174 494.450, 615.463 492.704, 614.824 489.072 C 613.687 482.620, 612.548 482.257, 610.530 487.704 M 574.270 492.069 C 574.097 494.366, 574.568 494.568, 575.349 492.532 C 575.659 491.725, 575.576 490.856, 575.164 490.601 C 574.752 490.347, 574.350 491.007, 574.270 492.069 M 566.932 493 C 566.272 496.346, 566.513 497.740, 567.674 497.295 C 568.403 497.015, 568.993 496.497, 568.985 496.143 C 568.964 495.283, 567.058 492.363, 566.932 493 M 549 498 C 548.099 498.582, 547.975 498.975, 548.691 498.985 C 549.346 498.993, 550.160 498.550, 550.500 498 C 551.267 496.758, 550.921 496.758, 549 498 M 557.275 499 C 557.192 500.100, 557.510 501, 557.980 501 C 560.101 501, 561.999 499.646, 561.985 498.143 C 561.971 496.709, 561.835 496.690, 560.909 498 C 560.110 499.129, 559.722 499.191, 559.341 498.250 C 558.569 496.348, 557.444 496.757, 557.275 499 M 552.269 499.920 C 552.358 501.108, 553.100 501.793, 554.207 501.709 C 556.554 501.533, 556.489 500.332, 554.062 499.033 C 552.446 498.168, 552.148 498.315, 552.269 499.920 M 549.500 502 C 549.840 502.550, 550.316 503, 550.559 503 C 550.802 503, 551 502.550, 551 502 C 551 501.450, 550.523 501, 549.941 501 C 549.359 501, 549.160 501.450, 549.500 502 M 563.750 501.689 C 562.788 501.941, 562 502.579, 562 503.109 C 562 503.662, 562.954 503.574, 564.250 502.900 C 568 500.949, 567.862 500.615, 563.750 501.689 M 551.564 504.707 C 551.022 506.132, 551.136 506.247, 552.124 505.267 C 552.808 504.588, 553.115 503.781, 552.807 503.474 C 552.499 503.166, 551.940 503.721, 551.564 504.707 M 173.487 508.500 C 174.319 510.425, 175.673 513.556, 176.496 515.458 C 179.306 521.955, 190.237 539.494, 193.872 543.338 C 198.078 547.787, 206.724 552.460, 212.548 553.432 C 215.146 553.866, 220.161 553.397, 226.548 552.123 C 232.022 551.031, 237.625 550.219, 239 550.319 C 241.128 550.473, 241.449 550.128, 241.158 548 C 239.963 539.265, 227.887 533.255, 209.173 532.080 C 202.943 531.688, 197.543 530.947, 197.173 530.433 C 196.803 529.918, 195.206 528.829, 193.625 528.013 C 190.063 526.174, 178.537 513.840, 175.644 508.771 C 172.940 504.035, 171.476 503.850, 173.487 508.500 M 384 507 C 384 507.550, 384.477 508, 385.059 508 C 385.641 508, 385.840 507.550, 385.500 507 C 385.160 506.450, 384.684 506, 384.441 506 C 384.198 506, 384 506.450, 384 507 M 307.528 510.031 C 309.143 511.816, 316.693 514.640, 317.553 513.781 C 317.746 513.588, 315.166 512.220, 311.821 510.741 C 306.521 508.399, 305.968 508.307, 307.528 510.031 M 713.667 510.667 C 712.721 511.612, 712.836 517, 713.802 517 C 714.243 517, 714.648 515.425, 714.703 513.500 C 714.807 509.809, 714.732 509.602, 713.667 510.667 M 717.195 512.500 C 717.215 514.150, 717.439 514.704, 717.693 513.731 C 717.947 512.758, 717.930 511.408, 717.656 510.731 C 717.382 510.054, 717.175 510.850, 717.195 512.500 M 402.318 518.798 C 401.425 520.166, 400.951 520.254, 399.904 519.250 C 398.126 517.545, 396.938 517.676, 397.638 519.500 C 398.413 521.518, 402.627 521.413, 403.417 519.357 C 404.292 517.075, 403.655 516.750, 402.318 518.798 M 602 521.059 C 602 521.641, 602.450 521.840, 603 521.500 C 603.550 521.160, 604 520.684, 604 520.441 C 604 520.198, 603.550 520, 603 520 C 602.450 520, 602 520.477, 602 521.059 M 297.507 526.011 C 297.843 526.555, 297.615 527, 297 527 C 296.385 527, 296.165 527.457, 296.510 528.016 C 296.856 528.575, 297.670 528.714, 298.319 528.324 C 298.992 527.921, 298.909 528.344, 298.128 529.308 C 296.727 531.034, 294.905 531.605, 295.118 530.250 C 295.417 528.358, 294.905 527, 293.893 527 C 293.229 527, 293.076 527.700, 293.512 528.750 C 293.911 529.712, 294.260 531.043, 294.286 531.706 C 294.312 532.369, 294.708 532.680, 295.167 532.397 C 295.625 532.114, 296 532.408, 296 533.052 C 296 533.695, 296.925 533.159, 298.056 531.861 L 300.113 529.500 298.953 531.877 C 297.468 534.921, 298.924 535.964, 304.691 535.985 C 311.303 536.009, 311.261 534.559, 304.500 529.390 C 300.272 526.158, 296.459 524.315, 297.507 526.011 M 328.667 525.667 C 327.668 526.665, 327.893 532.287, 329 534 C 329.743 535.149, 329.973 534.787, 329.985 532.450 C 329.993 530.773, 330.501 528.899, 331.113 528.287 C 331.725 527.675, 331.923 526.685, 331.554 526.087 C 330.791 524.853, 329.647 524.686, 328.667 525.667 M 593.143 525.890 C 592.309 526.419, 592.172 526.988, 592.788 527.369 C 593.340 527.710, 594.048 527.316, 594.364 526.494 C 595.026 524.767, 594.964 524.737, 593.143 525.890 M 417 528 C 417 528.550, 417.702 529, 418.559 529 C 419.416 529, 419.840 528.550, 419.500 528 C 419.160 527.450, 418.459 527, 417.941 527 C 417.423 527, 417 527.450, 417 528 M 419.667 546.424 C 419.375 547.188, 419.965 548.563, 420.980 549.482 C 422.707 551.045, 422.854 551.035, 423.296 549.325 C 423.597 548.161, 423.810 548.540, 423.884 550.372 C 423.972 552.554, 424.301 552.995, 425.253 552.205 C 426.134 551.474, 427.247 551.576, 429.003 552.547 C 432.195 554.314, 433.518 554.375, 431.821 552.679 C 431.095 551.952, 430.199 551.389, 429.831 551.429 C 429.462 551.468, 428.112 550.544, 426.831 549.375 C 423.047 545.925, 420.294 544.791, 419.667 546.424 M 362.079 561.583 C 362.127 562.748, 362.364 562.985, 362.683 562.188 C 362.972 561.466, 362.936 560.603, 362.604 560.271 C 362.272 559.939, 362.036 560.529, 362.079 561.583 M 241.250 586.662 C 238.780 587.659, 239.853 591.696, 242.926 592.969 C 247.128 594.710, 250 593.521, 250 590.040 C 250 586.455, 245.790 584.830, 241.250 586.662 M 580.066 608.772 C 577.555 611.397, 574.837 614.885, 574.026 616.522 C 573.216 618.160, 571.753 620.573, 570.776 621.885 C 569.799 623.197, 569 624.915, 569 625.705 C 569 629.630, 558.744 641.080, 548.219 648.907 C 544.249 651.859, 541 654.414, 541 654.584 C 541 655.225, 551.192 651.829, 558.143 648.871 C 569.471 644.051, 577.659 638.360, 583.561 631.205 C 589.478 624.032, 592 617.999, 592 611.022 C 592 602.380, 587.071 601.451, 580.066 608.772" stroke="none"  fill-rule="evenodd"/ fill="#1abc9c">
</svg>